<svg xmlns="http://www.w3.org/2000/svg" width="52" height="60" viewBox="0 0 52 60">
    <defs>
        <linearGradient id="a" x1="94.526%" x2="5.365%" y1="50%" y2="50%">
            <stop offset="0%" stop-color="#4FF3FE"/>
            <stop offset="100%" stop-color="#F436FF"/>
        </linearGradient>
    </defs>
    <path fill="url(#a)" fill-rule="nonzero" d="M450.056 1948.574h16.392c1.301 0 1.5 1.883.228 2.158-.149.034-.234.056-.33.08-.28.074-.593.165-.93.275a17.03 17.03 0 0 0-2.824 1.19c-1.96 1.056-3.238 2.335-3.652 3.84h31.883l-16.316-13.144a1.094 1.094 0 0 1 0-1.703l16.316-13.145h-24.375c-.6 0-1.086-.488-1.086-1.09v-6.453h-15.306v27.992zm6.568 8.584h-.055v-6.402h-7.599c-.6 0-1.085-.488-1.085-1.09v-30.175c0-.603.486-1.091 1.085-1.091h17.478c.6 0 1.085.488 1.085 1.09v6.454h26.38c1.025 0 1.478 1.297.678 1.942l-17.67 14.236 17.67 14.236c.8.644.347 1.942-.679 1.942H457.71a1.088 1.088 0 0 1-1.085-1.142zm2.116-4.757a11.295 11.295 0 0 1 2.124-1.645h-2.124v1.645zM443 1917.09c0-.603.486-1.091 1.085-1.091.6 0 1.086.488 1.086 1.09v57.82c0 .602-.486 1.09-1.086 1.09-.599 0-1.085-.488-1.085-1.09v-57.82z" transform="translate(-443 -1916)"/>
</svg>
