<?xml version="1.0" encoding="UTF-8" standalone="no"?>
<svg
   xmlns:dc="http://purl.org/dc/elements/1.1/"
   xmlns:cc="http://creativecommons.org/ns#"
   xmlns:rdf="http://www.w3.org/1999/02/22-rdf-syntax-ns#"
   xmlns:svg="http://www.w3.org/2000/svg"
   xmlns="http://www.w3.org/2000/svg"
   xmlns:sodipodi="http://sodipodi.sourceforge.net/DTD/sodipodi-0.dtd"
   xmlns:inkscape="http://www.inkscape.org/namespaces/inkscape"
   width="79.792999"
   height="119.793"
   viewBox="0 0 79.792999 119.793"
   version="1.1"
   id="svg11"
   sodipodi:docname="app.svg"
   inkscape:version="0.92.2 (5c3e80d, 2017-08-06)">
  <metadata
     id="metadata15">
    <rdf:RDF>
      <cc:Work
         rdf:about="">
        <dc:format>image/svg+xml</dc:format>
        <dc:type
           rdf:resource="http://purl.org/dc/dcmitype/StillImage" />
        <dc:title></dc:title>
      </cc:Work>
    </rdf:RDF>
  </metadata>
  <sodipodi:namedview
     pagecolor="#ffffff"
     bordercolor="#666666"
     borderopacity="1"
     objecttolerance="10"
     gridtolerance="10"
     guidetolerance="10"
     inkscape:pageopacity="0"
     inkscape:pageshadow="2"
     inkscape:window-width="640"
     inkscape:window-height="480"
     id="namedview13"
     showgrid="false"
     fit-margin-top="0"
     fit-margin-left="0"
     fit-margin-right="0"
     fit-margin-bottom="0"
     inkscape:zoom="1.0473684"
     inkscape:cx="190"
     inkscape:cy="59.793"
     inkscape:window-x="2356"
     inkscape:window-y="74"
     inkscape:window-maximized="0"
     inkscape:current-layer="svg11" />
  <defs
     id="defs7">
    <linearGradient
       id="a"
       x1="92.416474"
       x2="5.2452699"
       y1="65.207032"
       y2="65.207032"
       gradientTransform="matrix(0.81614378,0,0,1.2252743,0,-20)"
       gradientUnits="userSpaceOnUse">
      <stop
         offset="0%"
         stop-color="#4FF3FE"
         id="stop2" />
      <stop
         offset="100%"
         stop-color="#F436FF"
         id="stop4" />
    </linearGradient>
  </defs>
  <path
     d="M 4.982,89.845 H 74.811 V 22.46 H 4.982 v 67.384 z m 0,4.991 v 12.478 a 7.485,7.485 0 0 0 7.484,7.487 h 54.861 a 7.485,7.485 0 0 0 7.484,-7.487 V 94.836 Z m 0,-77.366 H 74.811 V 12.478 A 7.485,7.485 0 0 0 67.327,4.991 H 12.466 A 7.485,7.485 0 0 0 4.982,12.478 Z M 67.327,119.793 H 12.466 C 5.582,119.793 0,114.207 0,107.314 V 12.478 C 0,5.586 5.582,0 12.466,0 h 54.861 c 6.884,0 12.466,5.586 12.466,12.478 v 94.836 c 0,6.893 -5.582,12.479 -12.466,12.479 z m -27.43,-9.983 a 4.988,4.988 0 0 1 -4.985,-4.991 4.988,4.988 0 0 1 4.985,-4.992 4.988,4.988 0 0 1 4.984,4.992 4.988,4.988 0 0 1 -4.984,4.991 z"
     id="path9"
     inkscape:connector-curvature="0"
     style="fill:url(#a);fill-rule:nonzero" />
</svg>
