<svg xmlns="http://www.w3.org/2000/svg" xmlns:xlink="http://www.w3.org/1999/xlink" width="32" height="32" viewBox="0 0 32 32">
    <defs>
        <path id="a" d="M0 24h24V0H0z"/>
    </defs>
    <g fill="none" fill-rule="evenodd" transform="translate(4 4)">
        <path stroke="#171542" stroke-linecap="round" stroke-linejoin="round" d="M23.5 18c0 .825-.675 1.5-1.5 1.5H2c-.825 0-1.5-.675-1.5-1.5V6c0-.825.675-1.5 1.5-1.5h20c.825 0 1.5.675 1.5 1.5v12z"/>
        <path stroke="#171542" stroke-linecap="round" stroke-linejoin="round" d="M20 19.5H4l3-3h10zM5.5 10a2 2 0 1 1-.001 4.001A2 2 0 0 1 5.5 10z"/>
        <mask id="b" fill="#fff">
            <use xlink:href="#a"/>
        </mask>
        <path stroke="#171542" stroke-linecap="round" stroke-linejoin="round" d="M9.5 12.5h5v-2h-5zM5.5 11v-1M4.5 12h-1M5.5 13v1M6.5 12h1M18.5 10a2 2 0 1 1-.001 4.001A2 2 0 0 1 18.5 10zM18.5 11v-1M17.5 12h-1M18.5 13v1M19.5 12h1M3.5 6.5h17" mask="url(#b)"/>
    </g>
</svg>
