<?xml version="1.0" encoding="UTF-8" standalone="no"?>
<svg
   xmlns:dc="http://purl.org/dc/elements/1.1/"
   xmlns:cc="http://creativecommons.org/ns#"
   xmlns:rdf="http://www.w3.org/1999/02/22-rdf-syntax-ns#"
   xmlns:svg="http://www.w3.org/2000/svg"
   xmlns="http://www.w3.org/2000/svg"
   xmlns:sodipodi="http://sodipodi.sourceforge.net/DTD/sodipodi-0.dtd"
   xmlns:inkscape="http://www.inkscape.org/namespaces/inkscape"
   width="120.94513"
   height="120.95402"
   viewBox="0 0 120.94513 120.95402"
   version="1.1"
   id="svg11"
   sodipodi:docname="design.svg"
   inkscape:version="0.92.2 (5c3e80d, 2017-08-06)">
  <metadata
     id="metadata15">
    <rdf:RDF>
      <cc:Work
         rdf:about="">
        <dc:format>image/svg+xml</dc:format>
        <dc:type
           rdf:resource="http://purl.org/dc/dcmitype/StillImage" />
        <dc:title></dc:title>
      </cc:Work>
    </rdf:RDF>
  </metadata>
  <sodipodi:namedview
     pagecolor="#ffffff"
     bordercolor="#666666"
     borderopacity="1"
     objecttolerance="10"
     gridtolerance="10"
     guidetolerance="10"
     inkscape:pageopacity="0"
     inkscape:pageshadow="2"
     inkscape:window-width="640"
     inkscape:window-height="480"
     id="namedview13"
     showgrid="false"
     fit-margin-top="0"
     fit-margin-left="0"
     fit-margin-right="0"
     fit-margin-bottom="0"
     inkscape:zoom="1.0473684"
     inkscape:cx="190.0015"
     inkscape:cy="60.000046"
     inkscape:window-x="67"
     inkscape:window-y="27"
     inkscape:window-maximized="0"
     inkscape:current-layer="svg11" />
  <defs
     id="defs7">
    <linearGradient
       id="a"
       x1="114.32729"
       x2="6.4874445"
       y1="79.520118"
       y2="79.520118"
       gradientTransform="matrix(0.99996328,0,0,1.0000367,0.0015,-19.04603)"
       gradientUnits="userSpaceOnUse">
      <stop
         offset="0%"
         stop-color="#4FF3FE"
         id="stop2" />
      <stop
         offset="100%"
         stop-color="#F436FF"
         id="stop4" />
    </linearGradient>
  </defs>
  <path
     d="m 118.1775,17.00297 c -5.399,1.148 -8.582,4.328 -9.728,9.73 a 2.3,2.3 0 0 1 -4.499,0 c -1.147,-5.402 -4.329,-8.582 -9.73,-9.73 a 2.298,2.298 0 0 1 -1.821,-2.249 c 0,-1.086 0.761,-2.025 1.822,-2.25 5.4,-1.146 8.582,-4.3290004 9.73,-9.7270004 a 2.3,2.3 0 1 1 4.5,0 c 1.144,5.398 4.327,8.5800004 9.726,9.7270004 a 2.298,2.298 0 1 1 0,4.499 z m -11.977,-7.4220004 a 15.185,15.185 0 0 1 -5.173,5.1730004 15.185,15.185 0 0 1 5.173,5.174 15.165,15.165 0 0 1 5.173,-5.174 15.165,15.165 0 0 1 -5.173,-5.1730004 z m -10.827,29.1700004 -80.182,80.183 a 6.846,6.846 0 0 1 -4.88,2.02 6.842,6.842 0 0 1 -4.879,-2.02 l -3.415,-3.413 c -2.69,-2.69 -2.69,-7.07 0,-9.757 l 80.182,-80.182 c 2.606,-2.608 7.153,-2.608 9.76,0 l 3.413,3.413 c 2.691,2.69 2.691,7.069 0,9.757 z m -90.103,70.265 a 2.305,2.305 0 0 0 0,3.252 l 3.416,3.415 c 0.87,0.867 2.383,0.867 3.252,0 l 63.263,-63.264 -6.666,-6.667 -63.264,63.263 z m 86.85,-76.767 -3.415,-3.415 a 2.291,2.291 0 0 0 -1.627,-0.672 c -0.614,0 -1.191,0.24 -1.623,0.672 l -13.668,13.666 6.666,6.667 13.667,-13.667 a 2.305,2.305 0 0 0 0,-3.252 z m -33.746,-8.345 c -9.232,1.959 -14.67,7.396 -16.63,16.629 a 2.3,2.3 0 0 1 -4.499,0 c -1.957,-9.233 -7.397,-14.67 -16.628,-16.629 a 2.3,2.3 0 0 1 0,-4.499 c 9.23,-1.958 14.67,-7.396 16.628,-16.6280004 a 2.3,2.3 0 0 1 4.5,0 c 1.959,9.2320004 7.397,14.6700004 16.63,16.6280004 a 2.3,2.3 0 0 1 0,4.5 z m -18.88,-13.377 c -2.382,5.024 -6.102,8.742 -11.125,11.127 5.023,2.386 8.743,6.102 11.126,11.128 2.385,-5.023 6.104,-8.742 11.128,-11.128 -5.024,-2.385 -8.743,-6.103 -11.128,-11.127 z m 36.325,66.381 c 7.956,-1.689 12.642,-6.374 14.33,-14.327 a 2.302,2.302 0 0 1 2.25,-1.825 c 1.085,0 2.024,0.762 2.25,1.825 1.688,7.953 6.373,12.638 14.327,14.327 a 2.298,2.298 0 1 1 0,4.499 c -7.954,1.69 -12.64,6.375 -14.328,14.33 a 2.302,2.302 0 0 1 -2.25,1.823 2.302,2.302 0 0 1 -2.249,-1.823 c -1.688,-7.955 -6.374,-12.64 -14.33,-14.33 a 2.298,2.298 0 0 1 -1.822,-2.248 c 0,-1.086 0.762,-2.025 1.822,-2.25 z m 16.58,11.33 c 2.03,-4.014 5.065,-7.05 9.079,-9.079 -4.014,-2.032 -7.048,-5.065 -9.08,-9.078 -2.03,4.013 -5.064,7.046 -9.078,9.078 4.014,2.03 7.048,5.065 9.079,9.078 z"
     id="path9"
     inkscape:connector-curvature="0"
     style="fill:url(#a);fill-rule:nonzero" />
</svg>
