<?xml version="1.0" encoding="UTF-8" standalone="no"?>
<svg
   xmlns:dc="http://purl.org/dc/elements/1.1/"
   xmlns:cc="http://creativecommons.org/ns#"
   xmlns:rdf="http://www.w3.org/1999/02/22-rdf-syntax-ns#"
   xmlns:svg="http://www.w3.org/2000/svg"
   xmlns="http://www.w3.org/2000/svg"
   xmlns:sodipodi="http://sodipodi.sourceforge.net/DTD/sodipodi-0.dtd"
   xmlns:inkscape="http://www.inkscape.org/namespaces/inkscape"
   width="90"
   height="120.00034"
   viewBox="0 0 90 120.00034"
   version="1.1"
   id="svg11"
   sodipodi:docname="disaster.svg"
   inkscape:version="0.92.2 (5c3e80d, 2017-08-06)">
  <metadata
     id="metadata15">
    <rdf:RDF>
      <cc:Work
         rdf:about="">
        <dc:format>image/svg+xml</dc:format>
        <dc:type
           rdf:resource="http://purl.org/dc/dcmitype/StillImage" />
        <dc:title></dc:title>
      </cc:Work>
    </rdf:RDF>
  </metadata>
  <sodipodi:namedview
     pagecolor="#ffffff"
     bordercolor="#666666"
     borderopacity="1"
     objecttolerance="10"
     gridtolerance="10"
     guidetolerance="10"
     inkscape:pageopacity="0"
     inkscape:pageshadow="2"
     inkscape:window-width="640"
     inkscape:window-height="480"
     id="namedview13"
     showgrid="false"
     fit-margin-top="0"
     fit-margin-left="0"
     fit-margin-right="0"
     fit-margin-bottom="0"
     inkscape:zoom="1.0473684"
     inkscape:cx="190"
     inkscape:cy="60.000672"
     inkscape:window-x="0"
     inkscape:window-y="0"
     inkscape:window-maximized="0"
     inkscape:current-layer="svg11" />
  <defs
     id="defs7">
    <linearGradient
       id="a"
       x1="98.234441"
       x2="5.5754795"
       y1="69.28249"
       y2="69.28249"
       gradientTransform="matrix(0.86602416,0,0,1.1547022,0,-20.000328)"
       gradientUnits="userSpaceOnUse">
      <stop
         offset="0%"
         stop-color="#4FF3FE"
         id="stop2" />
      <stop
         offset="100%"
         stop-color="#F436FF"
         id="stop4" />
    </linearGradient>
  </defs>
  <path
     d="m 37.171,104.99967 7.41,11.114 a 2.5001725,2.5001725 0 1 1 -4.161,2.773 l -9.981,-14.972 A 2.488,2.488 0 0 1 30,102.49967 c 0,-0.525 0.162,-1.013 0.439,-1.415 l 9.98,-14.970998 a 2.5001725,2.5001725 0 1 1 4.161,2.773 l -7.409,11.113 H 72.5 c 6.9,0 12.5,-5.6 12.5,-12.5 v -55 c 0,-6.902 -5.599,-12.5 -12.5,-12.5 a 2.5,2.5 0 1 1 0,-5 c 9.662,0 17.5,7.836 17.5,17.5 v 55 c 0,9.661 -7.84,17.499998 -17.5,17.499998 z M 52.83,14.999672 45.42,3.8866725 a 2.5001725,2.5001725 0 0 1 4.161,-2.773 l 9.981,14.9709995 c 0.277,0.402 0.439,0.89 0.439,1.415 0,0.526 -0.162,1.013 -0.439,1.415 l -9.98,14.972 a 2.5001725,2.5001725 0 1 1 -4.161,-2.773 l 7.408,-11.114 H 17.5 c -6.904,0 -12.5,5.596 -12.5,12.5 v 55 c 0,6.901 5.598,12.5 12.5,12.5 a 2.5,2.5 0 1 1 0,4.999998 C 7.836,104.99967 0,97.162672 0,87.499672 v -55 c 0,-9.665 7.834,-17.5 17.5,-17.5 h 35.329 z"
     id="path9"
     inkscape:connector-curvature="0"
     style="fill:url(#a);fill-rule:nonzero" />
</svg>
