<svg xmlns="http://www.w3.org/2000/svg" width="58" height="60" viewBox="0 0 58 60">
    <defs>
        <linearGradient id="a" x1="94.526%" x2="5.365%" y1="50%" y2="50%">
            <stop offset="0%" stop-color="#4FF3FE"/>
            <stop offset="100%" stop-color="#F436FF"/>
        </linearGradient>
    </defs>
    <path fill="url(#a)" fill-rule="nonzero" d="M495 829.405V834c0 2.846-1.575 5.462-4.284 7.649-.012.013-.026.022-.038.033-4.428 3.553-11.892 5.941-20.639 6.266-.014.001-.025.008-.039.008-.011 0-.02-.006-.03-.006-.653.023-1.304.05-1.97.05-.666 0-1.317-.027-1.97-.05-.01 0-.02.006-.03.006-.014 0-.025-.008-.04-.008-8.747-.325-16.21-2.713-20.638-6.266-.013-.012-.026-.02-.038-.032-2.709-2.187-4.284-4.804-4.284-7.65v-8c0-2.642 1.391-5.183 4-7.382v-1.234c-2.522-2.133-4-4.648-4-7.384v-8c0-7.85 11.86-14 27-14s27 6.15 27 14v4.617c2.609 2.2 4 4.74 4 7.383v8c0 2.742-1.472 5.268-4 7.405zm-4 9.213c1.285-1.43 2-2.992 2-4.618v-2.648a13.895 13.895 0 0 1-2 2.048v5.218zm0-8.926c.039-.022.083-.042.122-.064a19.592 19.592 0 0 0 1.728-1.118c.053-.038.098-.08.15-.117v-5.502a23.87 23.87 0 0 1-2 1.137v5.664zm-4 12a19.01 19.01 0 0 0 2-1.3v-5.535c-.628.4-1.292.785-2 1.146v5.689zm2-10.998v-5.75c-.643.269-1.308.522-2 .758v5.806c.23-.084.47-.163.694-.251l.264-.107c.359-.146.7-.301 1.042-.456zm-6 12.814a29.962 29.962 0 0 0 2-.815v-5.775c-.644.268-1.31.52-2 .756v5.834zm-4 1.208c.685-.167 1.35-.348 2-.543v-5.876c-.652.184-1.318.354-2 .509v5.91zm-4 .777c.68-.099 1.344-.216 2-.342v-5.94c-.656.119-1.323.224-2 .316v5.966zm-4 .407a49.403 49.403 0 0 0 2-.154v-5.99c-.659.063-1.326.112-2 .15v5.994zm-4 .075c.334.006.663.025 1 .025.337 0 .666-.019 1-.025v-5.996c-.334.007-.664.02-1 .02-.338 0-.665-.018-1-.024v6zm-4-.229c.657.067 1.327.113 2 .154v-5.987a51.136 51.136 0 0 1-2-.154v5.987zm-4-.595c.656.126 1.32.243 2 .342v-5.967a48.064 48.064 0 0 1-2-.31v5.935zm-4-.978c.65.195 1.316.376 2 .543v-5.897a40.633 40.633 0 0 1-2-.494v5.848zm-4-1.48c.637.288 1.305.559 2 .815V837.7a32.25 32.25 0 0 1-2-.756v5.749zm-4-2.301c.61.454 1.273.889 2 1.3v-5.665a23.866 23.866 0 0 1-2-1.136v5.5zM443 834c0 1.626.715 3.189 2 4.619v-5.214c-.764-.646-1.444-1.322-2-2.035V834zm0-8c0 6.505 11.448 12 25 12 7.484 0 14.416-1.657 19.085-4.325-3.215 1.105-6.942 1.845-10.978 2.153-.184.015-.367.03-.552.043A54.333 54.333 0 0 1 472 836c-.666 0-1.317-.027-1.97-.05-.011 0-.019.006-.03.006-.014 0-.025-.007-.039-.008-10.062-.374-18.414-3.482-22.41-7.945-.042-.046-.086-.091-.127-.138-.21-.243-.409-.49-.594-.74-.103-.138-.196-.28-.29-.42-.143-.213-.292-.424-.416-.643a9.062 9.062 0 0 1-.516-1.065c-.059-.145-.104-.292-.154-.44a8.11 8.11 0 0 1-.248-.865c-.03-.135-.062-.27-.085-.405a7.664 7.664 0 0 1-.12-1.287v-.626c-1.097 1.227-2 2.795-2 4.626zm42 6.174v-5.85c-.648.182-1.32.342-2 .496v5.896c.198-.048.403-.09.6-.141.16-.041.316-.085.473-.128.316-.086.62-.181.927-.273zm-4 .978v-5.936c-.655.116-1.322.219-2 .31v5.967l.036-.004c.4-.057.786-.13 1.177-.196.263-.046.527-.091.786-.141zm-4 .586v-5.978c-.66.06-1.324.116-2 .154v5.986c.325-.02.645-.047.966-.073.344-.031.691-.056 1.034-.09zm-4 .237v-6c-.335.006-.662.025-1 .025-.336 0-.666-.014-1-.02v5.995c.334.007.663.025 1 .025.337 0 .666-.018 1-.025zm-4-.075v-5.994a53.533 53.533 0 0 1-2-.15v5.976c.66.068 1.325.127 2 .168zm-4-.418v-5.955a47.21 47.21 0 0 1-2-.314v5.93c.655.126 1.32.24 2 .339zm-4-.775v-5.901a40.786 40.786 0 0 1-2-.508v5.86c.65.196 1.314.383 2 .549zm-4-1.21v-5.823a33.024 33.024 0 0 1-2-.756v5.762c.639.288 1.304.56 2 .817zm-4-1.822v-5.672a23.515 23.515 0 0 1-2-1.146v5.513c.613.454 1.27.894 2 1.305zm0-10.178v-5.823a32.252 32.252 0 0 1-2-.76v5.767c.638.287 1.304.56 2 .816zm-6-.145V822c0 1.614.73 3.158 2 4.575V821.4a13.798 13.798 0 0 1-2-2.048zm2-1.678v-5.68c-.71-.36-1.37-.745-2-1.144v5.52c.613.454 1.27.893 2 1.304zM443 810c0 1.614.73 3.157 2 4.574v-5.196c-.76-.638-1.449-1.302-2-2.008V810zm25-20c-13.552 0-25 5.495-25 12s11.448 12 25 12c13.551 0 25-5.495 25-12s-11.449-12-25-12zm-13 24.297v5.863a38.29 38.29 0 0 0 2 .547v-5.898a41.419 41.419 0 0 1-2-.512zm4 .914v5.933c.656.125 1.322.24 2 .338v-5.954c-.68-.09-1.343-.2-2-.317zm4 .546v5.976c.66.067 1.325.126 2 .167v-5.992a51.168 51.168 0 0 1-2-.15zm4 .223v5.995c.334.007.663.025 1 .025.337 0 .666-.018 1-.025v-5.995c-.334.006-.663.02-1 .02-.337 0-.666-.014-1-.02zm4-.072v5.992c.675-.041 1.34-.1 2-.167v-5.976c-.659.062-1.324.114-2 .151zm4-.38v5.954a45.037 45.037 0 0 0 2-.338v-5.933a46.94 46.94 0 0 1-2 .317zm4-.72v5.899a38.212 38.212 0 0 0 2-.547v-5.863c-.653.182-1.315.357-2 .511zm4-1.134v5.823a29.961 29.961 0 0 0 2-.816v-5.768c-.646.268-1.307.525-2 .761zm4-1.68v5.68c.73-.41 1.387-.85 2-1.304v-5.52c-.63.4-1.29.783-2 1.143zm6-4.624c-.551.706-1.24 1.37-2 2.008v5.196c1.27-1.417 2-2.96 2-4.574v-2.63zm2 2.003V810c0 .435-.05.863-.121 1.286-.023.136-.055.27-.085.405a8.11 8.11 0 0 1-.248.866c-.05.147-.095.295-.154.44-.148.36-.317.716-.516 1.065-.124.218-.273.43-.416.643-.094.141-.187.281-.29.42-.185.25-.383.496-.594.74l-.127.138c-3.996 4.464-12.349 7.572-22.41 7.946-.014 0-.025.007-.039.007-.011 0-.02-.005-.03-.006-.653.024-1.304.05-1.97.05-.654 0-1.296-.032-1.941-.055-.021 0-.038.01-.06.01-.027 0-.05-.012-.077-.014a49.482 49.482 0 0 1-7.988-.951 1.021 1.021 0 0 1-.324-.066l-.108-.026a42.093 42.093 0 0 1-1.82-.428c-.264-.068-.517-.146-.776-.218a41.364 41.364 0 0 1-2.255-.717c4.67 2.754 11.729 4.465 19.35 4.465 13.55 0 24.999-5.495 24.999-12 0-1.832-.904-3.399-2-4.627zm2 9.998c-.556.713-1.236 1.388-2 2.034v5.214c1.285-1.43 2-2.993 2-4.62v-2.628zM468 812c-12.897 0-23-4.394-23-10 0-5.608 10.103-10 23-10s23 4.392 23 10c0 5.606-10.103 10-23 10zm0-18c-12.562 0-21 4.136-21 8 0 3.862 8.438 8 21 8 12.561 0 21-4.138 21-8 0-3.864-8.439-8-21-8z" transform="translate(-441 -788)"/>
</svg>
