<svg xmlns="http://www.w3.org/2000/svg" width="222" height="60" viewBox="0 0 222 60">
    <defs>
        <linearGradient id="a" x1="94.526%" x2="5.365%" y1="50%" y2="50%">
            <stop offset="0%" stop-color="#4FF3FE"/>
            <stop offset="100%" stop-color="#F436FF"/>
        </linearGradient>
    </defs>
    <path fill="url(#a)" fill-rule="nonzero" d="M1213.174 1886.543c-2.669.943-5.507 1.414-9.108 1.414-7.584 0-14.066-5.014-14.066-12.643 0-8.528 5.974-14.314 14.913-14.314 3.347 0 6.016.643 8.22 1.629l-1.441 4.028c-.72-.643-3.093-2.1-7.033-2.1-6.186 0-9.66 3.9-9.66 9.9 0 6.343 4.406 10.157 9.278 10.157 1.737 0 2.966-.171 3.983-.514.17-1.414.17-4.071.17-5.4 0-1.714 0-3.086-.17-4.329h5c-.086 1.5-.086 3.3-.086 5.1 0 1.929 0 4.972.085 7.029l-.085.043zm-23.174 21.6c0-8.829 6.397-14.229 14.32-14.229 3.347 0 5.55.386 7.626 1.372l-1.525 4.2c-.678-.943-2.881-2.143-6.059-2.143-5.423 0-9.278 3.686-9.278 9.986 0 6 4.025 9.942 9.278 9.942 2.457 0 4.406-.514 6.313-1.757l1.398 3.343c-2.5 1.414-5 1.929-8.473 1.929-7.711 0-13.6-5.143-13.6-12.643zm35.927-14.186c8.134 0 13.642 5.186 13.642 13.072 0 8.4-6.016 13.8-13.642 13.8-8.135 0-13.685-5.186-13.685-13.029 0-8.357 5.932-13.843 13.685-13.843zm0 23.443c5.084 0 8.473-4.029 8.473-10.029 0-6.042-3.474-9.985-8.473-9.985-5.296 0-8.474 4.028-8.474 9.985 0 5.958 3.263 10.029 8.474 10.029zm4.575-56.143c2.67 7.414 6.864 18.257 10.422 26.357h-5.465c-.339-.943-.678-1.928-1.059-2.914-.55-1.414-1.186-2.914-1.695-4.371h-10.591c-.551 1.457-1.144 3.042-1.78 4.328-.38.943-.932 2.143-1.186 2.957h-4.745c3.05-6.428 8.262-18.557 11.608-26.357h4.491zm-7.033 15.514h8.177c-1.525-3.771-2.754-7.371-3.855-10.714-.72 2.014-1.652 4.243-2.627 6.643-.508 1.329-1.186 2.786-1.695 4.071zm41.858 43.629c0-6.9-.211-14.1-.55-20.271-.424 1.242-.932 2.614-1.525 4.285-1.822 5.015-4.11 11.572-5.762 15.986h-4.364c-2.245-6.643-4.957-14.786-6.694-20.271-.635 6.085-1.27 13.5-1.525 20.271h-4.406c1.27-8.914 1.906-17.229 2.245-26.057h5.931c1.23 4.328 2.924 9.043 4.534 13.586.974 2.742 1.864 5.142 2.584 7.542 2.415-6.085 5.338-14.528 7.626-21.128h5.677c0 7.5.636 17.486 1.398 26.057h-5.169zm1.44-32.829c0-6.9-.21-14.1-.55-20.314-.466 1.243-.974 2.657-1.61 4.329-1.737 4.928-4.067 11.571-5.72 15.985h-4.363c-2.245-6.642-4.957-14.785-6.694-20.314-.678 6.129-1.356 13.543-1.525 20.314h-4.406c1.27-8.914 1.906-17.228 2.245-26.1h5.932c1.228 4.286 2.923 9.043 4.533 13.543.932 2.743 1.822 5.186 2.584 7.586 2.415-6.129 5.338-14.571 7.584-21.129h5.72c0 7.458.635 17.486 1.397 26.1h-5.126zm30.42 32.829c0-6.9-.212-14.1-.55-20.271-.467 1.242-.975 2.614-1.61 4.285-1.78 5.015-4.068 11.572-5.72 15.986h-4.406c-2.288-6.643-4.872-14.786-6.652-20.271-.678 6.085-1.355 13.5-1.61 20.271h-4.363c1.27-8.914 1.864-17.229 2.203-26.057h5.973c1.229 4.328 2.881 9.043 4.491 13.586.975 2.742 1.864 5.142 2.627 7.542 2.415-6.085 5.296-14.528 7.583-21.128h5.678c0 7.5.635 17.486 1.398 26.057h-5.042zm-9.151-46.886c3.601.815 5.889 3.129 5.846 6.257 0 5.058-3.643 7.8-11.015 7.8h-8.007c.254-4.842.254-7.8.254-12.685 0-5.186 0-8.272-.254-13.372h7.922c6.313 0 9.999 2.4 9.999 6.343 0 2.486-2.076 4.886-4.745 5.657zm-8.262-8.571c-.127 2.186-.127 4.8-.084 7.414h2.415c4.11 0 6.058-1.371 6.058-3.857 0-2.357-1.695-3.729-5.931-3.729-.763 0-1.78 0-2.458.172zm2.542 19.2c5.17 0 6.864-1.543 6.864-4.243 0-2.743-2.203-4.157-6.948-4.157h-2.585c0 2.914 0 5.528.085 8.4h2.584zm18.726-3.172c0 1.029.043 2.015.043 3.086 3.897 0 8.897 0 11.566-.171l-1.356 3.685h-15.082c.254-4.842.254-7.8.254-12.685 0-5.229 0-8.272-.254-13.372h4.999c-.043 1.757-.043 3.343-.085 4.672-.042 2.528-.17 5.485-.17 8.7 0 2.314.043 4.157.085 6.085zm4.025 39.429c.254-4.671.254-7.757.254-12.6 0-5.314 0-8.314-.254-13.5h5c-.255 5.143-.255 8.186-.255 13.5 0 4.843 0 7.929.254 12.6h-4.999zm23.683-21.214c-1.144-.986-2.966-1.929-5.55-1.929-3.135 0-4.703 1.372-4.703 3.214 0 1.543.72 2.658 4.067 4.115.805.343 1.738.771 2.585 1.157 3.982 1.843 5.592 3.814 5.592 7.371 0 5.057-4.067 7.672-9.49 7.672-3.177 0-6.016-.515-8.473-1.672l1.44-3.814c1.95 1.286 4.491 2.186 6.948 2.186 3.517 0 4.745-1.672 4.745-3.686 0-1.886-1.27-3.086-3.897-4.286a93.39 93.39 0 0 0-3.008-1.371c-3.56-1.672-5.296-3.643-5.296-6.986 0-4.157 3.77-7.286 9.532-7.286 3.178 0 5.466.515 7.033 1.372l-1.525 3.943zm-14.108-11.615c.254-4.842.254-7.8.254-12.685 0-5.229 0-8.272-.254-13.372h5c0 1.243-.043 2.443-.043 3.472-.043 3.3-.17 5.914-.17 9.9 0 3.685.085 6.257.17 9.385 0 .986.042 2.143.042 3.343h-4.999v-.043zm30.377-26.057c-.17 5.1-.17 8.186-.17 13.372 0 4.885 0 7.843.17 12.685h-4.491c-4.66-7.285-9.872-15.128-13.557-20.314 0 8.743 0 13.414.254 20.314h-4.533c.254-4.842.254-7.8.254-12.685 0-5.229 0-8.272-.254-13.372h5.21c5 6.772 9.872 13.886 12.922 18.643 0-7.714 0-12.514-.254-18.643h4.449zm2.626 37.672c-1.186-.986-2.965-1.929-5.55-1.929-3.135 0-4.745 1.372-4.745 3.214 0 1.543.763 2.658 4.11 4.115.847.343 1.737.771 2.584 1.157 3.94 1.843 5.593 3.814 5.593 7.371 0 5.057-4.068 7.672-9.448 7.672-3.262 0-6.016-.515-8.473-1.672l1.44-3.814c1.949 1.286 4.406 2.186 6.948 2.186 3.517 0 4.745-1.672 4.745-3.686 0-1.886-1.27-3.086-3.897-4.286a93.399 93.399 0 0 0-3.008-1.371c-3.56-1.672-5.296-3.643-5.296-6.986 0-4.157 3.77-7.286 9.532-7.286 3.178 0 5.465.515 7.033 1.372l-1.568 3.943zm23.005-12.643c-2.669.943-5.55 1.414-9.108 1.414-7.584 0-14.108-5.014-14.108-12.643 0-8.528 6.016-14.314 14.997-14.314 3.305 0 6.016.643 8.22 1.629l-1.441 3.942c-1.102-1.114-4.025-2.057-6.906-2.057-6.397 0-9.829 3.9-9.829 9.9 0 6.343 4.364 10.157 9.278 10.157 1.737 0 2.924-.171 3.898-.514.17-1.414.17-4.071.17-5.4 0-1.714 0-3.086-.17-4.328h5.042c-.085 1.5-.085 3.3-.085 5.1 0 1.928 0 4.971.085 7.028l-.043.086zm-18.429 33.857c.254-4.671.254-7.757.254-12.6 0-5.314 0-8.314-.254-13.5h5c-.255 5.143-.255 8.186-.255 13.5 0 4.843 0 7.929.254 12.6h-4.999zm21.014-26.443c8.176 0 13.684 5.186 13.684 13.072 0 8.4-5.974 13.8-13.684 13.8-8.135 0-13.642-5.186-13.642-13.029 0-8.357 5.889-13.843 13.642-13.843zm0 23.443c5.126 0 8.515-4.029 8.558-10.029 0-6.042-3.517-9.985-8.558-9.985-5.211 0-8.474 4.028-8.474 9.985 0 5.958 3.39 10.029 8.474 10.029zm38.257-23.1c-.17 5.143-.17 8.186-.17 13.5 0 4.843 0 7.929.17 12.6h-4.322c-4.83-7.286-9.998-15.129-13.684-20.271 0 8.742 0 13.542.254 20.271h-4.364v-.729c.043-2.271.255-7.542.255-11.871 0-5.314-.17-10.886-.255-13.5h5.084c5.084 6.857 9.83 14.014 12.922 18.729 0-7.543 0-12.558-.254-18.729h4.364z" transform="translate(-1190 -1861)"/>
</svg>
