<?xml version="1.0" encoding="UTF-8" standalone="no"?>
<svg
   xmlns:dc="http://purl.org/dc/elements/1.1/"
   xmlns:cc="http://creativecommons.org/ns#"
   xmlns:rdf="http://www.w3.org/1999/02/22-rdf-syntax-ns#"
   xmlns:svg="http://www.w3.org/2000/svg"
   xmlns="http://www.w3.org/2000/svg"
   xmlns:sodipodi="http://sodipodi.sourceforge.net/DTD/sodipodi-0.dtd"
   xmlns:inkscape="http://www.inkscape.org/namespaces/inkscape"
   width="111"
   height="120"
   viewBox="0 0 111 120"
   version="1.1"
   id="svg11"
   sodipodi:docname="journey.svg"
   inkscape:version="0.92.2 (5c3e80d, 2017-08-06)">
  <metadata
     id="metadata15">
    <rdf:RDF>
      <cc:Work
         rdf:about="">
        <dc:format>image/svg+xml</dc:format>
        <dc:type
           rdf:resource="http://purl.org/dc/dcmitype/StillImage" />
        <dc:title></dc:title>
      </cc:Work>
    </rdf:RDF>
  </metadata>
  <sodipodi:namedview
     pagecolor="#ffffff"
     bordercolor="#666666"
     borderopacity="1"
     objecttolerance="10"
     gridtolerance="10"
     guidetolerance="10"
     inkscape:pageopacity="0"
     inkscape:pageshadow="2"
     inkscape:window-width="1533"
     inkscape:window-height="845"
     id="namedview13"
     showgrid="false"
     fit-margin-top="0"
     fit-margin-left="0"
     fit-margin-right="0"
     fit-margin-bottom="0"
     inkscape:zoom="1.0473684"
     inkscape:cx="190"
     inkscape:cy="60"
     inkscape:window-x="67"
     inkscape:window-y="27"
     inkscape:window-maximized="1"
     inkscape:current-layer="svg11" />
  <defs
     id="defs7">
    <linearGradient
       id="a"
       x1="109.09463"
       x2="6.19187"
       y1="76.941536"
       y2="76.941536"
       gradientTransform="matrix(0.9617692,0,0,1.0397505,0,-20)"
       gradientUnits="userSpaceOnUse">
      <stop
         offset="0%"
         stop-color="#4FF3FE"
         id="stop2" />
      <stop
         offset="100%"
         stop-color="#F436FF"
         id="stop4" />
    </linearGradient>
  </defs>
  <path
     d="m 102.461,120 c -4.709,0 -8.539,-3.846 -8.539,-8.572 0,-4.727 3.83,-8.571 8.54,-8.571 4.708,0 8.538,3.844 8.538,8.571 0,4.726 -3.83,8.572 -8.539,8.572 z m 0,-12.857 c -2.354,0 -4.27,1.922 -4.27,4.285 0,2.364 1.916,4.286 4.27,4.286 2.355,0 4.27,-1.922 4.27,-4.286 0,-2.363 -1.915,-4.285 -4.27,-4.285 z m -0.625,-47.77 a 2.125,2.125 0 0 1 -3.019,0 l -4.895,-4.913 -4.894,4.913 a 2.125,2.125 0 0 1 -3.019,0 2.15,2.15 0 0 1 0,-3.03 l 4.895,-4.914 -4.895,-4.913 a 2.15,2.15 0 0 1 0,-3.03 2.127,2.127 0 0 1 3.019,0 l 4.894,4.913 4.895,-4.913 a 2.127,2.127 0 0 1 3.019,0 2.146,2.146 0 0 1 0,3.03 l -4.895,4.913 4.895,4.914 a 2.146,2.146 0 0 1 0,3.03 z M 98.192,25.715 A 2.14,2.14 0 0 1 96.057,23.572 V 7.316 L 75.765,27.686 C 64.073,39.425 57.635,55.03 57.635,71.628 v 22.874 c 6.043,1.028 10.673,6.285 10.673,12.64 0,7.09 -5.746,12.858 -12.808,12.858 -7.064,0 -12.808,-5.769 -12.808,-12.857 0,-6.356 4.628,-11.613 10.673,-12.641 V 71.628 c 0,-17.743 6.883,-34.425 19.381,-46.972 L 93.039,4.286 H 76.845 A 2.14,2.14 0 0 1 74.71,2.143 2.14,2.14 0 0 1 76.845,0 h 21.347 l 0.004,0.002 a 2.133,2.133 0 0 1 1.966,1.322 c 0.109,0.262 0.165,0.54 0.165,0.821 v 21.427 a 2.14,2.14 0 0 1 -2.135,2.143 z m -51.23,81.428 c 0,4.725 3.829,8.571 8.538,8.571 4.707,0 8.537,-3.846 8.537,-8.571 0,-4.728 -3.83,-8.572 -8.537,-8.572 -4.71,0 -8.539,3.844 -8.539,8.572 z M 33.527,25.087 a 2.125,2.125 0 0 1 -3.019,0 l -4.895,-4.914 -4.895,4.914 a 2.125,2.125 0 0 1 -3.018,0 2.15,2.15 0 0 1 0,-3.03 L 22.595,17.143 17.7,12.23 a 2.15,2.15 0 0 1 0,-3.03 2.127,2.127 0 0 1 3.018,0 L 25.613,14.113 30.51,9.2 a 2.127,2.127 0 0 1 3.019,0 2.146,2.146 0 0 1 0,3.03 l -4.895,4.914 4.895,4.914 a 2.146,2.146 0 0 1 0,3.03 z M 20.662,49.67 a 2.116,2.116 0 0 1 -2.114,2.1 h -0.042 a 2.116,2.116 0 0 1 -2.092,-2.186 2.133,2.133 0 0 1 2.177,-2.1 c 1.174,0.024 2.092,1.01 2.07,2.186 z m -4.056,42.622 a 2.157,2.157 0 0 1 -1.601,0.729 2.072,2.072 0 0 1 -1.41,-0.536 2.145,2.145 0 0 1 -0.191,-3.021 c 0.792,-0.9 2.134,-0.986 3.01,-0.193 0.875,0.771 0.982,2.143 0.192,3.021 z M 9.734,98.207 A 2.073,2.073 0 0 1 8.537,98.571 2.158,2.158 0 0 1 6.765,97.628 2.149,2.149 0 0 1 7.363,94.65 c 0.962,-0.665 2.305,-0.386 2.945,0.6 0.662,0.964 0.385,2.292 -0.574,2.957 z m 7.341,13.221 c 0,4.726 -3.83,8.572 -8.538,8.572 C 3.83,120 0,116.154 0,111.428 c 0,-4.727 3.83,-8.571 8.537,-8.571 4.709,0 8.538,3.844 8.538,8.571 z m -12.806,0 c 0,2.364 1.915,4.286 4.268,4.286 2.356,0 4.27,-1.922 4.27,-4.286 0,-2.363 -1.914,-4.285 -4.27,-4.285 -2.353,0 -4.268,1.922 -4.268,4.285 z m 15.88,-29.85 c 1.09,0.407 1.665,1.65 1.26,2.764 a 2.14,2.14 0 0 1 -2.007,1.393 c -0.256,0 -0.49,-0.043 -0.747,-0.128 a 2.16,2.16 0 0 1 -1.26,-2.765 2.14,2.14 0 0 1 2.754,-1.264 z M 19.167,60.32 a 2.125,2.125 0 0 1 -2.113,-1.864 2.1,2.1 0 0 1 1.815,-2.4 2.128,2.128 0 0 1 2.412,1.821 2.16,2.16 0 0 1 -1.836,2.422 c -0.085,0 -0.192,0.021 -0.278,0.021 z m 0.897,-16.926 c -0.256,0 -0.512,-0.043 -0.768,-0.153 a 2.128,2.128 0 0 1 -1.217,-2.764 2.117,2.117 0 0 1 2.754,-1.221 2.132,2.132 0 0 1 1.216,2.766 2.113,2.113 0 0 1 -1.985,1.372 z m 0.598,25.39 c -0.086,0 -0.192,0.022 -0.278,0.022 -1.046,0 -1.964,-0.793 -2.113,-1.886 -0.15,-1.157 0.683,-2.228 1.836,-2.4 1.174,-0.15 2.241,0.686 2.412,1.865 a 2.158,2.158 0 0 1 -1.857,2.4 z m 0.213,8.551 c -1.195,-0.021 -2.113,-1.029 -2.07,-2.207 a 2.16,2.16 0 0 1 2.198,-2.079 2.16,2.16 0 0 1 2.07,2.207 2.131,2.131 0 0 1 -2.132,2.079 z m 2.327,-44.699 a 2.144,2.144 0 0 1 3.031,-0.021 2.16,2.16 0 0 1 0.022,3.021 h -0.022 c -0.405,0.427 -0.96,0.643 -1.515,0.643 a 2.073,2.073 0 0 1 -1.495,-0.623 2.137,2.137 0 0 1 -0.021,-3.02 z m 67.305,48.342 a 2.136,2.136 0 0 1 2.177,2.121 2.16,2.16 0 0 1 -2.113,2.165 H 90.55 a 2.127,2.127 0 0 1 -2.135,-2.122 2.127,2.127 0 0 1 2.092,-2.164 z m 3.138,-5.85 a 2.165,2.165 0 0 1 -2.092,1.671 c -0.15,0 -0.299,-0.021 -0.47,-0.064 a 2.105,2.105 0 0 1 -1.6,-2.55 c 0.255,-1.157 1.408,-1.886 2.54,-1.629 a 2.167,2.167 0 0 1 1.622,2.572 z m 4.758,22.222 a 2.144,2.144 0 0 1 -1.684,3.471 2.13,2.13 0 0 1 -1.665,-0.814 2.147,2.147 0 0 1 0.341,-3 c 0.918,-0.75 2.263,-0.6 3.008,0.343 z m -5.996,-29.4 a 2.258,2.258 0 0 1 -0.62,-1.522 c 0,-0.558 0.236,-1.115 0.62,-1.522 0.79,-0.793 2.241,-0.793 3.031,0 0.384,0.407 0.62,0.964 0.62,1.522 0,0.557 -0.236,1.114 -0.62,1.521 a 2.24,2.24 0 0 1 -1.516,0.622 2.24,2.24 0 0 1 -1.515,-0.622 z m -0.982,21.514 a 2.113,2.113 0 0 1 2.796,1.135 2.135,2.135 0 0 1 -1.131,2.808 2.314,2.314 0 0 1 -0.833,0.171 2.13,2.13 0 0 1 -1.964,-1.307 2.135,2.135 0 0 1 1.132,-2.807 z"
     id="path9"
     inkscape:connector-curvature="0"
     style="fill:url(#a);fill-rule:nonzero" />
</svg>
