<svg xmlns="http://www.w3.org/2000/svg" width="380" height="160" viewBox="0 0 380 160">
    <defs>
        <linearGradient id="a" x1="94.526%" x2="5.365%" y1="50%" y2="50%">
            <stop offset="0%" stop-color="#4FF3FE"/>
            <stop offset="100%" stop-color="#F436FF"/>
        </linearGradient>
    </defs>
    <g fill="none" fill-rule="evenodd">
        <path fill="url(#a)" d="M78.715 131.65l8.515-14.26 16.165-3.725a55.184 55.184 0 0 1-24.68 17.985zm-30.195 2.125l-10.925-18.27 7.8-8.71H74.75l7.79 8.7-10.89 18.235C67.89 134.545 64 135 60 135c-3.94 0-7.77-.435-11.48-1.225zM16.585 113.64l16.32 3.76 8.56 14.32a55.13 55.13 0 0 1-24.88-18.08zm21.48-84.05l19.5 8.33v16.32L34.24 71.235l-13.17-6.44-1.9-21.515c5.23-5.805 11.64-10.52 18.895-13.69zm37-2.44l-15 6.4-15.045-6.425C49.79 25.775 54.8 25 60 25c5.23 0 10.27.78 15.065 2.15zm25.875 16.255L99.045 64.84l-12.62 6.785L62.57 54.24V37.92l19.425-8.295c7.285 3.19 13.715 7.935 18.945 13.78zm3.065 22.16l1.455-16.475c5.675 8.325 9.075 18.29 9.44 29.02l-10.895-12.545zm-57.91 36.23l-8.66-26.705 22.63-16.485 22.63 16.49-8.645 26.7H46.095zM16.12 65.585L5.085 78.28c.34-10.86 3.795-20.94 9.565-29.34l1.47 16.645zm17.505 46.85L12.48 107.57c-3.825-6.575-6.37-13.975-7.19-21.9l14.045-16.16 13.115 6.41 9 27.775-7.825 8.74zm73.88-4.845l-20.995 4.835-7.82-8.725 8.71-26.93 13.44-7.215 13.88 15.97c-.8 7.99-3.36 15.45-7.215 22.065zM60 20C26.915 20 0 46.915 0 80s26.915 60 60 60 60-26.915 60-60-26.915-60-60-60z"/>
        <rect width="60" height="37" x="90" y="20" fill="url(#a)" rx="8"/>
        <path fill="#FFF" d="M99.05 32v14h9.16v-2.76h-6V32h-3.16zm11.04 0v14h3.16V32h-3.16zm4.72 0l5.5 14h3.26l5.56-14h-3.26l-3.84 10.56L118.21 32h-3.4zm15.86 0v14h10.88v-2.62h-7.72v-3.1h6.74v-2.62h-6.74v-3.04h7.5V32h-10.66z"/>
    </g>
</svg>
