<?xml version="1.0" encoding="UTF-8" standalone="no"?>
<svg
   xmlns:dc="http://purl.org/dc/elements/1.1/"
   xmlns:cc="http://creativecommons.org/ns#"
   xmlns:rdf="http://www.w3.org/1999/02/22-rdf-syntax-ns#"
   xmlns:svg="http://www.w3.org/2000/svg"
   xmlns="http://www.w3.org/2000/svg"
   xmlns:xlink="http://www.w3.org/1999/xlink"
   xmlns:sodipodi="http://sodipodi.sourceforge.net/DTD/sodipodi-0.dtd"
   xmlns:inkscape="http://www.inkscape.org/namespaces/inkscape"
   width="150"
   height="120"
   viewBox="0 0 150 120"
   version="1.1"
   id="svg17"
   sodipodi:docname="livefootball.svg"
   inkscape:version="0.92.2 (5c3e80d, 2017-08-06)">
  <metadata
     id="metadata21">
    <rdf:RDF>
      <cc:Work
         rdf:about="">
        <dc:format>image/svg+xml</dc:format>
        <dc:type
           rdf:resource="http://purl.org/dc/dcmitype/StillImage" />
        <dc:title></dc:title>
      </cc:Work>
    </rdf:RDF>
  </metadata>
  <sodipodi:namedview
     pagecolor="#ffffff"
     bordercolor="#666666"
     borderopacity="1"
     objecttolerance="10"
     gridtolerance="10"
     guidetolerance="10"
     inkscape:pageopacity="0"
     inkscape:pageshadow="2"
     inkscape:window-width="640"
     inkscape:window-height="480"
     id="namedview19"
     showgrid="false"
     fit-margin-top="0"
     fit-margin-left="0"
     fit-margin-right="0"
     fit-margin-bottom="0"
     inkscape:zoom="1.0473684"
     inkscape:cx="190"
     inkscape:cy="60"
     inkscape:window-x="0"
     inkscape:window-y="0"
     inkscape:window-maximized="0"
     inkscape:current-layer="svg17" />
  <defs
     id="defs7">
    <linearGradient
       id="a"
       x1="0.94525999"
       x2="0.053649999"
       y1="0.5"
       y2="0.5">
      <stop
         offset="0%"
         stop-color="#4FF3FE"
         id="stop2" />
      <stop
         offset="100%"
         stop-color="#F436FF"
         id="stop4" />
    </linearGradient>
    <linearGradient
       inkscape:collect="always"
       xlink:href="#a"
       id="linearGradient23"
       x1="113.4312"
       y1="80"
       x2="6.4379999"
       y2="80"
       gradientUnits="userSpaceOnUse" />
    <linearGradient
       inkscape:collect="always"
       xlink:href="#a"
       id="linearGradient25"
       x1="115.21301"
       y1="49.02702"
       x2="73.203134"
       y2="49.02702"
       gradientTransform="scale(1.2734291,0.78528127)"
       gradientUnits="userSpaceOnUse" />
  </defs>
  <g
     id="g15"
     style="fill:none;fill-rule:evenodd"
     transform="translate(0,-20)">
    <path
       d="m 78.715,131.65 8.515,-14.26 16.165,-3.725 a 55.184,55.184 0 0 1 -24.68,17.985 z m -30.195,2.125 -10.925,-18.27 7.8,-8.71 H 74.75 l 7.79,8.7 -10.89,18.235 C 67.89,134.545 64,135 60,135 c -3.94,0 -7.77,-0.435 -11.48,-1.225 z m -31.935,-20.135 16.32,3.76 8.56,14.32 a 55.13,55.13 0 0 1 -24.88,-18.08 z m 21.48,-84.05 19.5,8.33 V 54.24 L 34.24,71.235 21.07,64.795 19.17,43.28 C 24.4,37.475 30.81,32.76 38.065,29.59 Z m 37,-2.44 -15,6.4 L 45.02,27.125 C 49.79,25.775 54.8,25 60,25 c 5.23,0 10.27,0.78 15.065,2.15 z M 100.94,43.405 99.045,64.84 86.425,71.625 62.57,54.24 V 37.92 l 19.425,-8.295 c 7.285,3.19 13.715,7.935 18.945,13.78 z m 3.065,22.16 1.455,-16.475 c 5.675,8.325 9.075,18.29 9.44,29.02 z m -57.91,36.23 -8.66,-26.705 22.63,-16.485 22.63,16.49 -8.645,26.7 z M 16.12,65.585 5.085,78.28 C 5.425,67.42 8.88,57.34 14.65,48.94 Z M 33.625,112.435 12.48,107.57 C 8.655,100.995 6.11,93.595 5.29,85.67 l 14.045,-16.16 13.115,6.41 9,27.775 z m 73.88,-4.845 -20.995,4.835 -7.82,-8.725 8.71,-26.93 13.44,-7.215 13.88,15.97 c -0.8,7.99 -3.36,15.45 -7.215,22.065 z M 60,20 C 26.915,20 0,46.915 0,80 c 0,33.085 26.915,60 60,60 33.085,0 60,-26.915 60,-60 C 120,46.915 93.085,20 60,20 Z"
       id="path9"
       inkscape:connector-curvature="0"
       style="fill:url(#linearGradient23)" />
    <rect
       width="60"
       height="37"
       x="90"
       y="20"
       rx="8"
       id="rect11"
       style="fill:url(#linearGradient25)" />
    <path
       d="m 99.05,32 v 14 h 9.16 v -2.76 h -6 V 32 Z m 11.04,0 v 14 h 3.16 V 32 Z m 4.72,0 5.5,14 h 3.26 l 5.56,-14 h -3.26 L 122.03,42.56 118.21,32 Z m 15.86,0 v 14 h 10.88 v -2.62 h -7.72 v -3.1 h 6.74 v -2.62 h -6.74 v -3.04 h 7.5 V 32 Z"
       id="path13"
       inkscape:connector-curvature="0"
       style="fill:#ffffff" />
  </g>
</svg>
