<?xml version="1.0" encoding="UTF-8" standalone="no"?>
<svg
   xmlns:dc="http://purl.org/dc/elements/1.1/"
   xmlns:cc="http://creativecommons.org/ns#"
   xmlns:rdf="http://www.w3.org/1999/02/22-rdf-syntax-ns#"
   xmlns:svg="http://www.w3.org/2000/svg"
   xmlns="http://www.w3.org/2000/svg"
   xmlns:xlink="http://www.w3.org/1999/xlink"
   xmlns:sodipodi="http://sodipodi.sourceforge.net/DTD/sodipodi-0.dtd"
   xmlns:inkscape="http://www.inkscape.org/namespaces/inkscape"
   width="151.00427"
   height="120.00029"
   viewBox="0 0 151.00427 120.00029"
   version="1.1"
   id="svg17"
   sodipodi:docname="livehorse.svg"
   inkscape:version="0.92.2 (5c3e80d, 2017-08-06)">
  <metadata
     id="metadata21">
    <rdf:RDF>
      <cc:Work
         rdf:about="">
        <dc:format>image/svg+xml</dc:format>
        <dc:type
           rdf:resource="http://purl.org/dc/dcmitype/StillImage" />
        <dc:title></dc:title>
      </cc:Work>
    </rdf:RDF>
  </metadata>
  <sodipodi:namedview
     pagecolor="#ffffff"
     bordercolor="#666666"
     borderopacity="1"
     objecttolerance="10"
     gridtolerance="10"
     guidetolerance="10"
     inkscape:pageopacity="0"
     inkscape:pageshadow="2"
     inkscape:window-width="640"
     inkscape:window-height="480"
     id="namedview19"
     showgrid="false"
     fit-margin-top="0"
     fit-margin-left="0"
     fit-margin-right="0"
     fit-margin-bottom="0"
     inkscape:zoom="1.0473684"
     inkscape:cx="190.00444"
     inkscape:cy="60"
     inkscape:window-x="0"
     inkscape:window-y="0"
     inkscape:window-maximized="0"
     inkscape:current-layer="svg17" />
  <defs
     id="defs7">
    <linearGradient
       id="a"
       x1="0.94525999"
       x2="0.053649999"
       y1="0.5"
       y2="0.5">
      <stop
         offset="0%"
         stop-color="#4FF3FE"
         id="stop2" />
      <stop
         offset="100%"
         stop-color="#F436FF"
         id="stop4" />
    </linearGradient>
    <linearGradient
       inkscape:collect="always"
       xlink:href="#a"
       id="linearGradient23"
       x1="127.23996"
       y1="89.741361"
       x2="7.218005"
       y2="89.741361"
       gradientTransform="scale(1.1217691,0.89144908)"
       gradientUnits="userSpaceOnUse" />
    <linearGradient
       inkscape:collect="always"
       xlink:href="#a"
       id="linearGradient25"
       x1="115.21301"
       y1="49.02702"
       x2="73.203134"
       y2="49.02702"
       gradientTransform="scale(1.2734291,0.78528127)"
       gradientUnits="userSpaceOnUse" />
  </defs>
  <g
     id="g15"
     style="fill:none;fill-rule:evenodd"
     transform="translate(0.00444416,-19.999707)">
    <path
       d="m 94.587,92.17 c 9.558,0 17.555,6.88 19.009,16.36 l 4.39,28.618 a 2.469,2.469 0 0 1 -2.44,2.85 2.467,2.467 0 0 1 -2.434,-2.097 l -4.39,-28.618 C 107.641,102.234 101.696,97.118 94.587,97.118 H 60.883 c -7.108,0 -13.053,5.116 -14.135,12.165 l -4.39,28.618 a 2.4654177,2.4654177 0 1 1 -4.873,-0.753 l 4.386,-28.617 c 1.457,-9.48 9.45,-16.36 19.012,-16.36 h 33.704 z m 45.687,-28.93 c 7.839,6.46 11.413,19.28 10.617,38.105 a 2.466,2.466 0 0 1 -2.46,2.372 c -0.032,0 -0.068,0 -0.104,-0.004 a 2.475,2.475 0 0 1 -2.361,-2.576 c 0.71,-16.881 -2.319,-28.644 -8.75,-34.014 a 13.787,13.787 0 0 0 -9.562,-3.239 c 0.132,0.637 0.2,1.293 0.21,1.963 1.454,0.237 3.279,0.86 5.137,2.388 5.583,4.581 8.286,14.589 8.03,29.749 a 2.469,2.469 0 0 1 -2.467,2.434 h -0.04 a 2.477,2.477 0 0 1 -2.426,-2.517 c 0.3,-17.792 -3.768,-23.825 -6.218,-25.837 a 6.021,6.021 0 0 0 -2.002,-1.091 v 66.553 A 2.469,2.469 0 0 1 125.41,140 2.47,2.47 0 0 1 122.944,137.526 V 66.018 a 5.59,5.59 0 0 0 -5.284,-5.59 L 70.936,57.963 C 65.406,57.67 60.381,54.493 57.823,49.671 48.133,31.404 31.011,26.367 21.673,24.991 c -1.845,-0.27 -3.623,0.76 -4.347,2.504 L 5.197,56.697 a 3.454,3.454 0 0 0 0.046,2.78 3.427,3.427 0 0 0 2.062,1.86 l 0.743,0.251 A 3.44,3.44 0 0 0 11.31,61.001 L 25.229,49.833 a 2.455,2.455 0 0 1 2.564,-0.32 2.477,2.477 0 0 1 1.44,2.157 l 3.289,85.757 a 2.473,2.473 0 0 1 -2.371,2.57 C 30.121,140 30.088,140 30.056,140 a 2.473,2.473 0 0 1 -2.463,-2.378 L 24.492,56.759 14.391,64.864 A 8.328,8.328 0 0 1 6.483,66.279 L 5.74,66.031 A 8.438,8.438 0 0 1 0.643,54.793 l 12.13,-29.204 c 1.595,-3.833 5.567,-6.086 9.615,-5.496 10.265,1.514 29.08,7.066 39.79,27.253 1.749,3.298 5.208,5.475 9.019,5.676 l 46.72,2.464 c 2.973,0.159 5.577,1.567 7.39,3.671 1.847,-0.326 8.703,-1.082 14.967,4.084 z M 78.846,78.578 c -12.074,0 -19.969,-4.605 -20.459,-4.898 a 2.477,2.477 0 0 1 -0.855,-3.391 2.455,2.455 0 0 1 3.377,-0.858 c 0.697,0.406 16.276,9.335 37.186,-0.132 a 2.467,2.467 0 0 1 3.261,1.237 2.483,2.483 0 0 1 -1.233,3.276 c -7.891,3.569 -15.128,4.766 -21.277,4.766 z"
       id="path9"
       inkscape:connector-curvature="0"
       style="fill:url(#linearGradient23)" />
    <rect
       width="60"
       height="37"
       x="90"
       y="20"
       rx="8"
       id="rect11"
       style="fill:url(#linearGradient25)" />
    <path
       d="m 99.05,32 v 14 h 9.16 v -2.76 h -6 V 32 Z m 11.04,0 v 14 h 3.16 V 32 Z m 4.72,0 5.5,14 h 3.26 l 5.56,-14 h -3.26 L 122.03,42.56 118.21,32 Z m 15.86,0 v 14 h 10.88 v -2.62 h -7.72 v -3.1 h 6.74 v -2.62 h -6.74 v -3.04 h 7.5 V 32 Z"
       id="path13"
       inkscape:connector-curvature="0"
       style="fill:#ffffff" />
  </g>
</svg>
