<svg xmlns="http://www.w3.org/2000/svg" width="53" height="60" viewBox="0 0 53 60">
    <defs>
        <linearGradient id="a" x1="94.526%" x2="5.365%" y1="50%" y2="50%">
            <stop offset="0%" stop-color="#4FF3FE"/>
            <stop offset="100%" stop-color="#F436FF"/>
        </linearGradient>
    </defs>
    <path fill="url(#a)" fill-rule="nonzero" d="M161.414 424.367c2.118 2.104 6.036 4.285 11.197 6.41 2.94 1.21 6.098 2.327 9.256 3.323 1.106.349 2.133.657 3.053.922.55.158.942.266 1.147.321.55.147.933.642.933 1.207 0 13.317-.795 20.7-3.723 27.739-3.723 8.947-10.77 15.387-22.339 19.633a1.273 1.273 0 0 1-.876 0c-11.57-4.246-18.616-10.686-22.339-19.633-2.928-7.038-3.723-14.422-3.723-27.739 0-.565.383-1.06.933-1.207.205-.055.596-.163 1.146-.321.92-.265 1.947-.573 3.053-.922 3.158-.995 6.314-2.112 9.255-3.323 5.16-2.125 9.079-4.306 11.197-6.41.236-.235.558-.367.893-.367.378 0 .7.132.937.367zm-.915 2.565c-2.485 2.113-6.306 4.162-11.144 6.154-3.014 1.24-6.236 2.38-9.458 3.396a129.51 129.51 0 0 1-3.372 1.015c.038 12.407.835 19.358 3.532 25.84 3.4 8.171 9.78 14.07 20.443 18.078 10.663-4.008 17.044-9.907 20.443-18.079 2.697-6.48 3.494-13.432 3.532-25.84l-.259-.073c-.94-.27-1.987-.585-3.114-.94-3.222-1.017-6.445-2.157-9.46-3.398-4.837-1.991-8.658-4.04-11.143-6.153zm16.88 25.076c.326-2.805.48-5.943.512-9.468l-26.567 26.318c1.553 1.306 3.379 2.456 5.517 3.495l20.538-20.345zm-.671 4.2l-17.403 17.24c.39.157.788.313 1.195.467 9.705-3.658 14.291-8.638 16.208-17.706zm3.181-3.979c.065.28.03.58-.103.841-1.6 12.368-6.586 18.852-18.847 23.352a1.273 1.273 0 0 1-.877 0c-12.736-4.675-17.62-11.488-19.017-24.815a1.243 1.243 0 0 1-.073-.74c-.274-2.933-.39-6.174-.39-9.767 0-.565.383-1.06.934-1.207a93.642 93.642 0 0 0 3.09-.915 86.189 86.189 0 0 0 6.813-2.446c3.778-1.555 6.643-3.15 8.17-4.665.237-.235.558-.367.894-.367.367 0 .689.132.925.367a8.036 8.036 0 0 0 .125.121c1.48 1.406 4.094 2.877 7.507 4.318a63.489 63.489 0 0 0 .54.225c2.165.891 4.49 1.714 6.817 2.447a93.69 93.69 0 0 0 3.09.915c.551.147.934.642.934 1.207 0 4.159-.155 7.846-.532 11.13zm-4.348-10.897a89.37 89.37 0 0 1-6.65-2.378l-22.91 22.696c.904 2.079 2.06 3.882 3.525 5.473l26.035-25.791zm-9.137-3.45c-2.343-1.076-4.274-2.176-5.71-3.308l-17.123 16.964c.304 2.819.773 5.308 1.457 7.521l21.376-21.177zm-23.105 10.39l9.834-9.743c-.245.104-.493.208-.746.312a88.663 88.663 0 0 1-7.017 2.52c-.816.257-1.576.486-2.261.683.013 2.224.072 4.295.19 6.227zm17.221-23.022v1.25h-.043v-1.25l.894.883c-.27.267-.56.533-.872.799a15.346 15.346 0 0 1-.872-.8l.893-.882z" transform="translate(-134 -424)"/>
</svg>
