<svg xmlns="http://www.w3.org/2000/svg" width="130" height="32" viewBox="0 0 130 32">
    <defs>
        <linearGradient id="a" x1="94.526%" x2="5.365%" y1="50%" y2="50%">
            <stop offset="0%" stop-color="#4FF3FE"/>
            <stop offset="100%" stop-color="#F436FF"/>
        </linearGradient>
    </defs>
    <g fill="none" fill-rule="evenodd">
        <path fill="#FFF" d="M120 10.108h-3.463v4.36h2.587v1.793h-2.587v4.632H120v1.96h-5.486V8.147H120v1.962zm-8.903 9.951c0 1.898-1.314 2.795-3.254 2.795h-3.087V8.146h3.004c1.919 0 3.233.96 3.233 2.859v2.19c0 1.189-.397 1.836-1.127 2.15.773.312 1.231.896 1.231 2.21v2.504zm-9.758-.439c0 1.982-1.356 3.38-3.254 3.38-1.94 0-3.275-1.398-3.275-3.38V8.146h2.023v11.558c0 1.063.668 1.335 1.252 1.335.605 0 1.23-.313 1.23-1.335V8.146h2.024V19.62zm-9.946-7.593H89.35v-.689c0-1.043-.605-1.376-1.231-1.376-.646 0-1.251.333-1.251 1.376v8.345c0 1.043.605 1.356 1.25 1.356.648 0 1.232-.313 1.232-1.356v-.772h2.044v.71c0 1.981-1.355 3.379-3.275 3.379-1.94 0-3.274-1.398-3.274-3.38v-8.219C84.844 9.398 86.179 8 88.118 8c1.92 0 3.275 1.398 3.275 3.401v.626zm-9.966 10.827h-1.919l-2.628-8.657v8.657h-2.023V8.146h1.898l2.628 8.846V8.146h2.044v14.708zM61.473 10.108h-3.462v4.36h2.586v1.793h-2.586v4.632h3.462v1.96h-5.486V8.147h5.486v1.962zm-8.902 12.746h-1.92l-2.628-8.657v8.657H46V8.146h1.898l2.628 8.846V8.146h2.045v14.708zM71.44 19.62c0 1.982-1.355 3.38-3.275 3.38-1.94 0-3.275-1.398-3.275-3.38v-8.198c0-2.003 1.335-3.4 3.275-3.4 1.92 0 3.275 1.397 3.275 3.4v8.198zm-3.265-9.638c-.667 0-1.25.335-1.25 1.357v8.344c0 1.022.604 1.357 1.25 1.357.626 0 1.231-.335 1.231-1.357v-8.344c0-1.022-.584-1.357-1.23-1.357zm39.668 6.175c.709 0 1.23.209 1.23 1.232v2.273c0 1.064-.562 1.252-1.293 1.252h-1v-4.757h1.063zm1.189-2.858c0 1.106-.542 1.272-1.23 1.272h-.98v-4.463h.896c.814 0 1.314.23 1.314 1.293V13.3z"/>
        <path fill="url(#a)" d="M28.554.096C29.353.096 30 .751 30 1.56v24.502c0 3.328-2.675 6.035-5.964 6.035a1.454 1.454 0 0 1-1.445-1.463c0-.808.647-1.463 1.445-1.463 1.694 0 3.073-1.394 3.073-3.109V1.56c0-.808.647-1.463 1.445-1.463zm-22.59 0c.798 0 1.445.655 1.445 1.463s-.647 1.463-1.445 1.463C4.27 3.022 2.89 4.416 2.89 6.13v24.502c0 .808-.647 1.463-1.445 1.463A1.454 1.454 0 0 1 0 30.633V6.131C0 2.803 2.675.096 5.964.096zM19.518 29.17c.798 0 1.446.655 1.446 1.463s-.648 1.463-1.446 1.463c-3.288 0-5.964-2.707-5.964-6.034V6.13c0-1.715-1.378-3.11-3.072-3.11A1.454 1.454 0 0 1 9.036 1.56c0-.808.648-1.463 1.446-1.463 3.288 0 5.964 2.707 5.964 6.035v19.93c0 1.715 1.378 3.11 3.072 3.11z"/>
    </g>
</svg>
