<svg xmlns="http://www.w3.org/2000/svg" xmlns:xlink="http://www.w3.org/1999/xlink" width="70" height="64" viewBox="0 0 70 64">
    <defs>
        <linearGradient id="b" x1="100%" x2="0%" y1="0%" y2="100%">
            <stop offset="0%" stop-color="#4FF3FE"/>
            <stop offset="100%" stop-color="#F238FF"/>
        </linearGradient>
        <path id="a" d="M169.168 1035a5.21 5.21 0 0 0-4.168 5.115v53.67c0 2.88 2.321 5.215 5.185 5.215h9.074c1.193 0 2.16-.973 2.16-2.173 0-1.2-.967-2.173-2.16-2.173h-9.074a.867.867 0 0 1-.864-.869v-53.67c0-.48.387-.87.864-.87h9.074c1.193 0 2.16-.972 2.16-2.172 0-.972-.634-1.795-1.509-2.073h-10.742zm50.922 0a2.173 2.173 0 0 0-1.51 2.073c0 1.2.968 2.172 2.16 2.172h9.075c.477 0 .864.39.864.87v53.67c0 .48-.387.87-.864.87h-9.074c-1.193 0-2.16.972-2.16 2.172 0 1.2.967 2.173 2.16 2.173h9.074c2.861 0 5.182-2.331 5.185-5.209v-53.683a5.21 5.21 0 0 0-4.168-5.108H220.09zm-8.562 54.858l-22.713-35.506v34.33c0 1.2-.967 2.173-2.16 2.173a2.167 2.167 0 0 1-2.16-2.173v-41.723c0-2.168 2.81-2.999 3.977-1.175l22.713 35.505v-34.33c0-1.2.967-2.173 2.16-2.173s2.16.973 2.16 2.173v41.723c0 2.168-2.81 3-3.977 1.176z"/>
    </defs>
    <use fill="url(#b)" fill-rule="evenodd" transform="translate(-165 -1035)" xlink:href="#a"/>
</svg>
