<?xml version="1.0" encoding="UTF-8" standalone="no"?>
<svg
   xmlns:dc="http://purl.org/dc/elements/1.1/"
   xmlns:cc="http://creativecommons.org/ns#"
   xmlns:rdf="http://www.w3.org/1999/02/22-rdf-syntax-ns#"
   xmlns:svg="http://www.w3.org/2000/svg"
   xmlns="http://www.w3.org/2000/svg"
   xmlns:sodipodi="http://sodipodi.sourceforge.net/DTD/sodipodi-0.dtd"
   xmlns:inkscape="http://www.inkscape.org/namespaces/inkscape"
   width="144.006"
   height="119.84707"
   viewBox="0 0 144.006 119.84707"
   version="1.1"
   id="svg11"
   sodipodi:docname="offline.svg"
   inkscape:version="0.92.2 (5c3e80d, 2017-08-06)">
  <metadata
     id="metadata15">
    <rdf:RDF>
      <cc:Work
         rdf:about="">
        <dc:format>image/svg+xml</dc:format>
        <dc:type
           rdf:resource="http://purl.org/dc/dcmitype/StillImage" />
        <dc:title></dc:title>
      </cc:Work>
    </rdf:RDF>
  </metadata>
  <sodipodi:namedview
     pagecolor="#ffffff"
     bordercolor="#666666"
     borderopacity="1"
     objecttolerance="10"
     gridtolerance="10"
     guidetolerance="10"
     inkscape:pageopacity="0"
     inkscape:pageshadow="2"
     inkscape:window-width="640"
     inkscape:window-height="480"
     id="namedview13"
     showgrid="false"
     fit-margin-top="0"
     fit-margin-left="0"
     fit-margin-right="0"
     fit-margin-bottom="0"
     inkscape:zoom="1.0473684"
     inkscape:cx="190"
     inkscape:cy="59.923534"
     inkscape:window-x="2782"
     inkscape:window-y="68"
     inkscape:window-maximized="0"
     inkscape:current-layer="svg11" />
  <defs
     id="defs7">
    <linearGradient
       id="a"
       x1="124.18104"
       x2="7.048127"
       y1="87.693332"
       y2="87.693332"
       gradientTransform="matrix(1.0961667,0,0,0.91227004,0,-20.076466)"
       gradientUnits="userSpaceOnUse">
      <stop
         offset="0%"
         stop-color="#4FF3FE"
         id="stop2" />
      <stop
         offset="100%"
         stop-color="#F436FF"
         id="stop4" />
    </linearGradient>
  </defs>
  <path
     d="m 138.006,98.923534 c 0,4.961996 -4.038,8.999996 -9,8.999996 H 15 c -4.962,0 -9,-4.038 -9,-8.999996 v -12 c 0,-4.962 4.038,-9 9,-9 h 114.006 c 4.962,0 9,4.038 9,9 z m -9,-27 c 8.274,0 15,6.726 15,15 v 12 c 0,7.247996 -5.16,13.307996 -12.006,14.693996 v 3.306 a 3.001,3.001 0 0 1 -6,0 v -3 H 18 v 3 a 3.001,3.001 0 0 1 -6,0 v -3.306 c -6.84,-1.392 -12,-7.446 -12,-14.693996 v -12 c 0,-8.274 6.732,-15 15,-15 h 51 v -45 a 3.001,3.001 0 0 1 6,0 v 45 z m -45.006,15 c -3.312,0 -6,2.688 -6,6 0,3.312 2.688,6 6,6 3.312,0 6,-2.688 6,-6 0,-3.312 -2.688,-6 -6,-6 z m 18,0 c -3.312,0 -6,2.688 -6,6 0,3.312 2.688,6 6,6 3.312,0 6,-2.688 6,-6 0,-3.312 -2.688,-6 -6,-6 z m 18,0 c -3.312,0 -6,2.688 -6,6 0,3.312 2.688,6 6,6 3.312,0 6,-2.688 6,-6 0,-3.312 -2.688,-6 -6,-6 z m -69,3 H 15 a 3.001,3.001 0 0 0 0,6 h 36 a 3.001,3.001 0 0 0 0,-6 z m 6,-54 c -1.656,0 -3,-1.344 -3,-3 v -12 a 3.001,3.001 0 0 1 6,0 v 12 c 0,1.656 -1.344,3 -3,3 z m -18,6 c -1.656,0 -3,-1.344 -3,-3 v -24 a 3.001,3.001 0 0 1 6,0 v 24 c 0,1.656 -1.344,3 -3,3 z m -18,6 c -1.656,0 -3,-1.344 -3,-3 V 8.9235339 a 3.001,3.001 0 0 1 6,0 V 44.923534 c 0,1.656 -1.344,3 -3,3 z m -18,6 c -1.656,0 -3,-1.344 -3,-3 V 2.9235339 a 3.001,3.001 0 0 1 6,0 V 50.923534 c 0,1.656 -1.344,3 -3,3 z m 78,-18 c -1.656,0 -3,-1.344 -3,-3 v -12 a 3.001,3.001 0 0 1 6,0 v 12 c 0,1.656 -1.344,3 -3,3 z m 18,6 c -1.656,0 -3,-1.344 -3,-3 v -24 a 3.001,3.001 0 0 1 6,0 v 24 c 0,1.656 -1.344,3 -3,3 z m 18,6 c -1.656,0 -3,-1.344 -3,-3 V 8.9235339 a 3.001,3.001 0 0 1 6,0 V 44.923534 c 0,1.656 -1.344,3 -3,3 z m 18,6 c -1.656,0 -3,-1.344 -3,-3 V 2.9235339 a 3.001,3.001 0 0 1 6,0 V 50.923534 c 0,1.656 -1.344,3 -3,3 z"
     id="path9"
     inkscape:connector-curvature="0"
     style="fill:url(#a);fill-rule:evenodd" />
</svg>
