<svg xmlns="http://www.w3.org/2000/svg" width="51" height="60" viewBox="0 0 51 60">
    <defs>
        <linearGradient id="a" x1="94.526%" x2="5.365%" y1="50%" y2="50%">
            <stop offset="0%" stop-color="#4FF3FE"/>
            <stop offset="100%" stop-color="#F436FF"/>
        </linearGradient>
    </defs>
    <path fill="url(#a)" fill-rule="nonzero" d="M157.372 191.714c-10.312 0-18.673 8.401-18.673 18.762s8.361 18.762 18.673 18.762c10.312 0 18.673-8.4 18.673-18.762 0-10.361-8.361-18.762-18.673-18.762zm2.49 47.423v1.477c4.788.46 9.303 2.24 13.147 5.134.958.721.45 2.252-.746 2.252h-29.784c-1.197 0-1.704-1.53-.747-2.252 3.84-2.892 8.36-4.674 13.15-5.134v-1.477a28.46 28.46 0 0 1-17.758-8.321 1.255 1.255 0 0 1 0-1.769 1.24 1.24 0 0 1 1.76 0 25.998 25.998 0 0 0 18.553 7.696 25.99 25.99 0 0 0 18.417-7.69c10.209-10.258 10.208-26.89 0-37.15a1.255 1.255 0 0 1 0-1.768 1.24 1.24 0 0 1 1.76 0c11.18 11.236 11.182 29.452 0 40.686a28.452 28.452 0 0 1-17.752 8.316zm-2.49-49.924c11.687 0 21.163 9.52 21.163 21.263 0 11.743-9.476 21.264-21.163 21.264s-21.163-9.521-21.163-21.264c0-11.743 9.476-21.263 21.163-21.263zm18.482 4.46a1.24 1.24 0 0 1-1.76 0 1.255 1.255 0 0 1 0-1.77l3.52-3.537a1.24 1.24 0 0 1 1.76 0c.487.489.487 1.28 0 1.77l-3.52 3.536zm-38.729 38.912a1.24 1.24 0 0 1-1.76 0 1.255 1.255 0 0 1 0-1.769l3.52-3.537a1.24 1.24 0 0 1 1.76 0c.487.488.487 1.28 0 1.769l-3.52 3.537z" transform="translate(-135 -188)"/>
</svg>
