<svg xmlns="http://www.w3.org/2000/svg" width="83" height="60" viewBox="0 0 83 60">
    <defs>
        <linearGradient id="a" x1="94.526%" x2="5.365%" y1="50%" y2="50%">
            <stop offset="0%" stop-color="#4FF3FE"/>
            <stop offset="100%" stop-color="#F436FF"/>
        </linearGradient>
    </defs>
    <path fill="url(#a)" fill-rule="nonzero" d="M507.707 1552h-62.965a4.294 4.294 0 0 1-4.293-4.286v-1.428h-1.431a4.293 4.293 0 0 1-4.294-4.286v-1.429h-1.43a4.294 4.294 0 0 1-4.294-4.284v-40.001a4.295 4.295 0 0 1 4.293-4.286h62.965a4.294 4.294 0 0 1 4.293 4.286v1.428h1.431a4.294 4.294 0 0 1 4.294 4.286v1.429h1.43a4.295 4.295 0 0 1 4.294 4.286v40a4.294 4.294 0 0 1-4.293 4.285zm-10.018-55.714c0-.787-.641-1.429-1.43-1.429h-62.966c-.788 0-1.43.642-1.43 1.429v40c0 .788.642 1.428 1.43 1.428h1.431V1502a4.294 4.294 0 0 1 4.294-4.286h58.671v-1.428zm5.724 5.714c0-.787-.64-1.428-1.43-1.428H439.017c-.789 0-1.431.641-1.431 1.428v40c0 .788.642 1.428 1.43 1.428h1.432v-35.713a4.295 4.295 0 0 1 4.293-4.286h58.671V1502zm5.725 5.715c0-.787-.643-1.429-1.431-1.429h-62.965c-.79 0-1.431.641-1.431 1.429v39.999a1.43 1.43 0 0 0 1.43 1.429h62.966c.788 0 1.43-.64 1.43-1.429v-40zm-10.018 38.57a7.097 7.097 0 0 1-4.292-1.454 7.104 7.104 0 0 1-4.293 1.455c-3.945 0-7.155-3.205-7.155-7.142 0-3.939 3.21-7.143 7.155-7.143 1.554 0 3.058.517 4.293 1.454a7.097 7.097 0 0 1 4.292-1.454c3.946 0 7.156 3.204 7.156 7.143 0 3.937-3.21 7.142-7.156 7.142zm0-11.427c-1.235 0-2.378.526-3.215 1.482-.543.621-1.612.621-2.154 0-.837-.956-1.98-1.482-3.216-1.482a4.293 4.293 0 0 0-4.293 4.286 4.293 4.293 0 0 0 4.293 4.284c1.235 0 2.379-.525 3.216-1.481a1.427 1.427 0 0 1 2.154 0c.837.956 1.98 1.481 3.215 1.481a4.293 4.293 0 0 0 4.293-4.284 4.293 4.293 0 0 0-4.293-4.286zm2.862-5.714a1.43 1.43 0 0 1-1.43-1.429v-1.428a1.43 1.43 0 0 1 2.861 0v1.428a1.43 1.43 0 0 1-1.43 1.429zm-5.724 0c-.79 0-1.43-.64-1.43-1.429v-1.428a1.43 1.43 0 1 1 2.86 0l.001 1.428a1.43 1.43 0 0 1-1.43 1.429zm-5.723 0a1.43 1.43 0 0 1-1.43-1.429v-1.428a1.43 1.43 0 1 1 2.862 0v1.428a1.43 1.43 0 0 1-1.432 1.429zm-5.724 0a1.43 1.43 0 0 1-1.431-1.429v-1.428a1.43 1.43 0 0 1 2.862 0v1.428a1.43 1.43 0 0 1-1.431 1.429zm-5.724 0a1.43 1.43 0 0 1-1.432-1.429v-1.428a1.43 1.43 0 0 1 2.863 0v1.428a1.43 1.43 0 0 1-1.431 1.429zm-2.863 17.142h-25.758a1.43 1.43 0 1 1 0-2.858h25.758a1.43 1.43 0 0 1 0 2.857zm-2.862-17.142a1.43 1.43 0 0 1-1.43-1.429v-1.428a1.43 1.43 0 0 1 2.861 0v1.428a1.43 1.43 0 0 1-1.43 1.429zm-5.724 11.427h-5.725a1.43 1.43 0 1 1 0-2.857h5.725a1.43 1.43 0 0 1 0 2.857zm0-11.427a1.43 1.43 0 0 1-1.431-1.429v-1.428a1.43 1.43 0 0 1 2.862 0v1.428a1.43 1.43 0 0 1-1.431 1.429zm-5.725 0a1.43 1.43 0 0 1-1.43-1.429v-1.428a1.43 1.43 0 0 1 2.862 0v1.428a1.43 1.43 0 0 1-1.432 1.429zm-5.722 11.427h-5.725a1.43 1.43 0 1 1 0-2.857h5.725a1.43 1.43 0 0 1 0 2.857zm0-11.427a1.43 1.43 0 0 1-1.433-1.429v-1.428a1.43 1.43 0 0 1 1.433-1.43c.79 0 1.43.64 1.43 1.43v1.428a1.43 1.43 0 0 1-1.43 1.429zm-1.433-8.572h-5.723a2.863 2.863 0 0 1-2.862-2.857V1512a2.863 2.863 0 0 1 2.862-2.857h5.723a2.863 2.863 0 0 1 2.864 2.857v5.715a2.863 2.863 0 0 1-2.864 2.857zm0-8.572h-5.723v5.715h5.726l-.003-5.715zm-4.292 12.858c.79 0 1.431.64 1.431 1.429v1.428a1.43 1.43 0 0 1-2.862 0v-1.428a1.43 1.43 0 0 1 1.431-1.43z" transform="translate(-429 -1492)"/>
</svg>
