<svg xmlns="http://www.w3.org/2000/svg" width="43" height="60" viewBox="0 0 43 60">
    <defs>
        <linearGradient id="a" x1="94.526%" x2="5.365%" y1="50%" y2="50%">
            <stop offset="0%" stop-color="#4FF3FE"/>
            <stop offset="100%" stop-color="#F436FF"/>
        </linearGradient>
    </defs>
    <path fill="url(#a)" fill-rule="nonzero" d="M169.618 728.841v1.408c0 .69-.567 1.25-1.265 1.25-.699 0-1.265-.56-1.265-1.25v-1.408c-2.181-.555-3.794-2.513-3.794-4.842 0-.69.566-1.25 1.265-1.25.698 0 1.265.56 1.265 1.25 0 1.38 1.133 2.5 2.529 2.5s2.53-1.12 2.53-2.5-1.134-2.5-2.53-2.5c-2.793 0-5.059-2.24-5.059-5 0-2.328 1.613-4.286 3.794-4.841v-1.408c0-.69.566-1.25 1.265-1.25.698 0 1.265.56 1.265 1.25v1.408c2.181.555 3.794 2.513 3.794 4.842 0 .69-.566 1.25-1.265 1.25-.698 0-1.265-.56-1.265-1.25 0-1.38-1.133-2.5-2.53-2.5-1.395 0-2.528 1.12-2.528 2.5s1.133 2.5 2.529 2.5c2.793 0 5.059 2.239 5.059 5 0 2.328-1.613 4.286-3.794 4.841zm-29.459 14.79c-.797.788-2.159.23-2.159-.883v-57.496c0-1.113 1.362-1.67 2.159-.883l4.165 4.115 4.164-4.115a1.275 1.275 0 0 1 1.789 0l4.164 4.115 4.165-4.115a1.275 1.275 0 0 1 1.788 0l4.165 4.115 4.164-4.115a1.275 1.275 0 0 1 1.789 0l4.164 4.115 4.165-4.115c.797-.788 2.159-.23 2.159.883v57.496c0 1.113-1.362 1.67-2.159.883l-4.165-4.115-4.164 4.115a1.275 1.275 0 0 1-1.789 0l-4.164-4.115-4.165 4.115a1.275 1.275 0 0 1-1.788 0l-4.165-4.115-4.164 4.115a1.275 1.275 0 0 1-1.789 0l-4.164-4.115-4.165 4.115zm.37-3.9l2.9-2.867a1.275 1.275 0 0 1 1.789 0l4.164 4.116 4.165-4.116a1.275 1.275 0 0 1 1.788 0l4.165 4.116 4.165-4.116a1.275 1.275 0 0 1 1.788 0l4.165 4.116 4.164-4.116a1.275 1.275 0 0 1 1.789 0l2.9 2.866v-51.46l-2.9 2.866a1.275 1.275 0 0 1-1.789 0l-4.164-4.116-4.165 4.116a1.275 1.275 0 0 1-1.788 0l-4.165-4.116-4.165 4.116a1.275 1.275 0 0 1-1.788 0l-4.165-4.116-4.164 4.116a1.275 1.275 0 0 1-1.789 0l-2.9-2.866v51.46zm6.324-38.23c-.699 0-1.265-.56-1.265-1.25s.566-1.25 1.265-1.25h20.235c.699 0 1.265.56 1.265 1.25s-.566 1.25-1.265 1.25h-20.235zm0 7.5c-.699 0-1.265-.56-1.265-1.25s.566-1.25 1.265-1.25h10.118c.698 0 1.264.56 1.264 1.25s-.566 1.25-1.264 1.25h-10.118zm0 7.499c-.699 0-1.265-.56-1.265-1.25s.566-1.25 1.265-1.25h10.118c.698 0 1.264.56 1.264 1.25s-.566 1.25-1.264 1.25h-10.118zm0 7.5c-.699 0-1.265-.56-1.265-1.25 0-.691.566-1.25 1.265-1.25h7.588c.699 0 1.265.559 1.265 1.25 0 .69-.566 1.25-1.265 1.25h-7.588z" transform="translate(-138 -684)"/>
</svg>
