<svg xmlns="http://www.w3.org/2000/svg" width="62" height="60" viewBox="0 0 62 60">
    <defs>
        <linearGradient id="a" x1="94.526%" x2="5.365%" y1="50%" y2="50%">
            <stop offset="0%" stop-color="#4FF3FE"/>
            <stop offset="100%" stop-color="#F436FF"/>
        </linearGradient>
    </defs>
    <path fill="url(#a)" fill-rule="nonzero" d="M499.963 2265.38h-35.259a1.036 1.036 0 0 1-1.037-1.035c0-.571.465-1.035 1.037-1.035h34.222v-33.103H462.63a1.036 1.036 0 0 1-1.037-1.035c0-.57.465-1.034 1.037-1.034h37.333c.572 0 1.037.463 1.037 1.034v35.173c0 .57-.465 1.034-1.037 1.034zm-7.26-24.828a2.074 2.074 0 0 1-4.147 0 2.074 2.074 0 0 1 4.148 0zm-31.11-7.242c0-.57.465-1.034 1.037-1.034h33.185c.572 0 1.037.463 1.037 1.034v26.897c0 .57-.465 1.034-1.037 1.034h-29.037a1.036 1.036 0 0 1-1.037-1.034c0-.571.465-1.035 1.037-1.035h28v-24.827H462.63a1.036 1.036 0 0 1-1.037-1.035zm10.37 11.38a2.074 2.074 0 0 1-2.074-2.07 2.074 2.074 0 0 1 4.149 0c0 1.142-.93 2.07-2.074 2.07zm5.186 4.138c-.266 0-.531-.102-.734-.304l-2.074-2.068a1.032 1.032 0 0 1 0-1.463 1.038 1.038 0 0 1 1.467 0l2.074 2.069a1.032 1.032 0 0 1 0 1.462 1.037 1.037 0 0 1-.733.304zm9.637-5.904a1.038 1.038 0 0 1 1.466 0 1.033 1.033 0 0 1 0 1.463l-4.148 4.137a1.035 1.035 0 0 1-1.466 0 1.032 1.032 0 0 1 0-1.462l4.148-4.138zm-6.526 10.042a2.074 2.074 0 0 1-2.074-2.07 2.074 2.074 0 0 1 4.148 0c0 1.142-.93 2.07-2.074 2.07zm-12.804-8.087c.487 7.292-.224 11.689-2.24 13.837-.9.961-2.044 1.453-3.391 1.48-.114 11.576-1.162 19.089-1.273 19.847a4.122 4.122 0 0 1-4.144 3.957h-6.222a4.122 4.122 0 0 1-4.144-3.955c-.115-.763-1.17-8.13-1.274-19.85-1.264-.028-2.353-.512-3.232-1.454-2.61-2.798-2.744-9.086-2.397-13.868.19-2.625 1.748-7.002 9.745-8.16-1.466-1.353-2.327-3.327-2.327-5.473 0-3.992 3.024-7.24 6.74-7.24 3.717 0 6.74 3.248 6.74 7.24 0 2.14-.858 4.11-2.316 5.462 7.609 1.064 9.52 4.966 9.735 8.177zm-9.492-13.639c0-2.85-2.094-5.171-4.667-5.171-2.574 0-4.666 2.32-4.666 5.171 0 1.977 1.045 3.81 2.664 4.666.339.179.55.53.55.913v.727c0 .54-.419.99-.96 1.03-4.225.314-9.332 1.687-9.677 6.447-.442 6.09.23 10.576 1.847 12.31.482.516 1.03.766 1.708.794.003-3.576.092-7.49.324-11.736a1.032 1.032 0 0 1 1.092-.975c.573.03 1.011.52.98 1.09-1.103 20.066.921 33.151.942 33.28.006.045.01.09.011.134a2.062 2.062 0 0 0 2.074 2.011h2.074v-22.759a1.036 1.036 0 0 1 2.074 0v22.759h2.074c1.13 0 2.042-.883 2.073-2.011a.881.881 0 0 1 .013-.128c.02-.135 2.044-13.641.941-33.286a1.035 1.035 0 0 1 .978-1.09 1.047 1.047 0 0 1 1.093.974c.238 4.222.326 8.144.326 11.738.763-.027 1.365-.285 1.87-.825 2.34-2.494 1.847-9.865 1.684-12.286-.256-3.838-3.512-6.006-9.675-6.444a1.035 1.035 0 0 1-.962-1.032v-.722c0-.382.212-.734.55-.913 1.618-.857 2.665-2.689 2.665-4.666z" transform="translate(-439 -2224)"/>
</svg>
