<?xml version="1.0" encoding="UTF-8" standalone="no"?>
<svg
   xmlns:dc="http://purl.org/dc/elements/1.1/"
   xmlns:cc="http://creativecommons.org/ns#"
   xmlns:rdf="http://www.w3.org/1999/02/22-rdf-syntax-ns#"
   xmlns:svg="http://www.w3.org/2000/svg"
   xmlns="http://www.w3.org/2000/svg"
   xmlns:sodipodi="http://sodipodi.sourceforge.net/DTD/sodipodi-0.dtd"
   xmlns:inkscape="http://www.inkscape.org/namespaces/inkscape"
   width="120"
   height="120"
   viewBox="0 0 120 120"
   version="1.1"
   id="svg11"
   sodipodi:docname="retail.svg"
   inkscape:version="0.92.2 (5c3e80d, 2017-08-06)">
  <metadata
     id="metadata15">
    <rdf:RDF>
      <cc:Work
         rdf:about="">
        <dc:format>image/svg+xml</dc:format>
        <dc:type
           rdf:resource="http://purl.org/dc/dcmitype/StillImage" />
        <dc:title></dc:title>
      </cc:Work>
    </rdf:RDF>
  </metadata>
  <sodipodi:namedview
     pagecolor="#ffffff"
     bordercolor="#666666"
     borderopacity="1"
     objecttolerance="10"
     gridtolerance="10"
     guidetolerance="10"
     inkscape:pageopacity="0"
     inkscape:pageshadow="2"
     inkscape:window-width="640"
     inkscape:window-height="480"
     id="namedview13"
     showgrid="false"
     fit-margin-top="0"
     fit-margin-left="0"
     fit-margin-right="0"
     fit-margin-bottom="0"
     inkscape:zoom="1.0473684"
     inkscape:cx="190"
     inkscape:cy="60"
     inkscape:window-x="67"
     inkscape:window-y="27"
     inkscape:window-maximized="0"
     inkscape:current-layer="svg11" />
  <defs
     id="defs7">
    <linearGradient
       id="a"
       x1="113.4312"
       x2="6.4379999"
       y1="80"
       y2="80"
       gradientUnits="userSpaceOnUse"
       gradientTransform="translate(0,-20)">
      <stop
         offset="0%"
         stop-color="#4FF3FE"
         id="stop2" />
      <stop
         offset="100%"
         stop-color="#F436FF"
         id="stop4" />
    </linearGradient>
  </defs>
  <path
     d="m 39.992,89.998 a 5,5 0 0 0 -5,5 5,5 0 1 0 9.999,0 5,5 0 0 0 -5,-5 z M 34.01,72.993 18.016,5 H 2.5 a 2.5,2.5 0 0 1 0,-5 h 17.497 a 2.5,2.5 0 0 1 2.433,1.928 l 6.604,28.074 h 88.445 a 2.5,2.5 0 0 1 2.371,3.291 l -7.578,22.727 a 2.5,2.5 0 1 1 -4.743,-1.582 l 6.481,-19.436 h -83.8 l 8.234,35.004 h 21.42 a 2.5,2.5 0 0 1 0,5 H 39.618 l 2.352,10.001 h 18.017 a 2.5,2.5 0 0 1 0,5 h -11.33 a 9.958,9.958 0 0 1 1.332,4.99 c 0,5.524 -4.475,10.002 -9.998,10.002 -5.523,0 -9.998,-4.478 -9.998,-10.001 0,-4.46 2.919,-8.24 6.95,-9.528 L 34.05,73.168 A 2.484,2.484 0 0 1 34.009,72.993 Z M 92.506,64.995 C 107.693,64.995 120,77.305 120,92.498 120,107.69 107.693,120 92.506,120 77.321,120 65.011,107.688 65.011,92.498 c 0,-15.19 12.31,-27.503 27.495,-27.503 z m 0,5 C 80.082,69.995 70.01,80.069 70.01,92.498 70.01,104.926 80.082,115 92.506,115 104.932,115 115,104.928 115,92.498 115,80.068 104.931,69.996 92.505,69.996 Z m -10.717,18.223 8.109,8.238 13.345,-13.234 a 2.499645,2.499645 0 1 1 3.52,3.55 l -15.127,15.002 a 2.499,2.499 0 0 1 -3.541,-0.022 L 78.227,91.727 a 2.5000462,2.5000462 0 0 1 3.562,-3.509 z"
     id="path9"
     inkscape:connector-curvature="0"
     style="fill:url(#a);fill-rule:nonzero" />
</svg>
