<?xml version="1.0" encoding="UTF-8" standalone="no"?>
<svg
   xmlns:dc="http://purl.org/dc/elements/1.1/"
   xmlns:cc="http://creativecommons.org/ns#"
   xmlns:rdf="http://www.w3.org/1999/02/22-rdf-syntax-ns#"
   xmlns:svg="http://www.w3.org/2000/svg"
   xmlns="http://www.w3.org/2000/svg"
   xmlns:sodipodi="http://sodipodi.sourceforge.net/DTD/sodipodi-0.dtd"
   xmlns:inkscape="http://www.inkscape.org/namespaces/inkscape"
   width="120"
   height="120"
   viewBox="0 0 120 120"
   version="1.1"
   id="svg11"
   sodipodi:docname="scalable.svg"
   inkscape:version="0.92.2 (5c3e80d, 2017-08-06)">
  <metadata
     id="metadata15">
    <rdf:RDF>
      <cc:Work
         rdf:about="">
        <dc:format>image/svg+xml</dc:format>
        <dc:type
           rdf:resource="http://purl.org/dc/dcmitype/StillImage" />
        <dc:title></dc:title>
      </cc:Work>
    </rdf:RDF>
  </metadata>
  <sodipodi:namedview
     pagecolor="#ffffff"
     bordercolor="#666666"
     borderopacity="1"
     objecttolerance="10"
     gridtolerance="10"
     guidetolerance="10"
     inkscape:pageopacity="0"
     inkscape:pageshadow="2"
     inkscape:window-width="640"
     inkscape:window-height="480"
     id="namedview13"
     showgrid="false"
     fit-margin-top="0"
     fit-margin-left="0"
     fit-margin-right="0"
     fit-margin-bottom="0"
     inkscape:zoom="1.0473684"
     inkscape:cx="190"
     inkscape:cy="60"
     inkscape:window-x="0"
     inkscape:window-y="0"
     inkscape:window-maximized="0"
     inkscape:current-layer="svg11" />
  <defs
     id="defs7">
    <linearGradient
       id="a"
       x1="113.4312"
       x2="6.4379999"
       y1="80"
       y2="80"
       gradientUnits="userSpaceOnUse"
       gradientTransform="translate(0,-20)">
      <stop
         offset="0%"
         stop-color="#4FF3FE"
         id="stop2" />
      <stop
         offset="100%"
         stop-color="#F436FF"
         id="stop4" />
    </linearGradient>
  </defs>
  <path
     d="m 109.655,24.619 v 37.659 c 5.86,0.993 10.345,6.068 10.345,12.205 0,6.844 -5.57,12.414 -12.414,12.414 -2.3,0 -4.452,-0.631 -6.296,-1.728 L 85.17,101.29 a 12.273,12.273 0 0 1 1.728,6.296 c 0,6.846 -5.57,12.414 -12.414,12.414 -6.137,0 -11.214,-4.486 -12.205,-10.345 H 24.619 C 23.627,115.515 18.55,120 12.415,120 5.568,120 0,114.432 0,107.586 0,101.45 4.486,96.374 10.345,95.381 V 57.722 C 4.485,56.73 0,51.654 0,45.517 0,38.671 5.568,33.103 12.414,33.103 c 2.677,0 5.125,0.89 7.148,2.34 l 15.881,-15.88 c -1.45,-2.024 -2.34,-4.472 -2.34,-7.15 C 33.103,5.569 38.671,0 45.517,0 51.654,0 56.729,4.486 57.722,10.345 h 37.66 C 96.371,4.485 101.45,0 107.585,0 114.43,0 120,5.568 120,12.414 c 0,6.136 -4.486,11.212 -10.345,12.205 z m 6.207,49.864 c 0,-4.564 -3.714,-8.276 -8.276,-8.276 -4.564,0 -8.276,3.712 -8.276,8.276 0,4.564 3.712,8.276 8.276,8.276 4.562,0 8.276,-3.712 8.276,-8.276 z m -39.31,-16.76 v 14.69 h 2.069 a 2.07,2.07 0 0 1 0,4.139 h -2.07 v 18.83 a 12.412,12.412 0 0 1 5.922,2.753 l 15.66,-15.662 a 12.429,12.429 0 0 1 -2.752,-5.921 h -0.209 a 2.07,2.07 0 0 1 0,-4.138 h 0.21 c 0.877,-5.185 4.957,-9.28 10.135,-10.157 V 24.64 a 12.298,12.298 0 0 1 -5.096,-2.135 L 84.58,38.346 c 1.447,2.03 2.318,4.494 2.318,7.171 0,6.137 -4.486,11.212 -10.345,12.205 z m 6.207,-12.206 c 0,-4.564 -3.714,-8.276 -8.276,-8.276 -4.564,0 -8.276,3.712 -8.276,8.276 0,4.564 3.712,8.276 8.276,8.276 4.562,0 8.276,-3.712 8.276,-8.276 z m -8.276,70.345 c 4.562,0 8.276,-3.714 8.276,-8.276 0,-4.564 -3.714,-8.276 -8.276,-8.276 -4.564,0 -8.276,3.712 -8.276,8.276 0,4.562 3.712,8.276 8.276,8.276 z M 4.138,107.586 c 0,4.562 3.712,8.276 8.276,8.276 4.562,0 8.276,-3.714 8.276,-8.276 0,-4.564 -3.714,-8.276 -8.276,-8.276 -4.564,0 -8.276,3.712 -8.276,8.276 z m 8.276,-70.345 c -4.564,0 -8.276,3.712 -8.276,8.276 0,4.564 3.712,8.276 8.276,8.276 4.562,0 8.276,-3.712 8.276,-8.276 0,-4.564 -3.714,-8.276 -8.276,-8.276 z m 2.069,20.502 v 37.618 a 12.31,12.31 0 0 1 5.096,2.135 l 0.399,-0.4 a 2.067,2.067 0 0 1 2.925,0 2.067,2.067 0 0 1 0,2.926 l -0.405,0.406 a 12.395,12.395 0 0 1 2.12,5.09 h 37.66 c 0.877,-5.186 4.957,-9.28 10.136,-10.157 V 57.743 C 67.235,56.866 63.155,52.771 62.278,47.586 h -37.66 c -0.879,5.185 -4.957,9.28 -10.135,10.157 z M 45.517,4.138 c -4.564,0 -8.276,3.712 -8.276,8.276 0,4.562 3.712,8.276 8.276,8.276 4.562,0 8.276,-3.714 8.276,-8.276 0,-4.564 -3.714,-8.276 -8.276,-8.276 z M 95.381,14.483 H 57.722 c -0.88,5.183 -4.957,9.28 -10.136,10.156 v 0.189 a 2.07,2.07 0 0 1 -4.138,0 v -0.21 c -1.872,-0.316 -3.579,-1.088 -5.069,-2.14 l -15.902,15.9 c 1.053,1.49 1.823,3.197 2.142,5.07 h 18.83 v -2.07 a 2.07,2.07 0 0 1 4.137,0 v 2.07 h 14.692 c 0.991,-5.86 6.068,-10.346 12.205,-10.346 2.675,0 5.141,0.871 7.17,2.318 l 15.85,-15.849 a 12.367,12.367 0 0 1 -2.122,-5.09 z M 107.586,4.138 c -4.564,0 -8.276,3.712 -8.276,8.276 0,4.562 3.712,8.276 8.276,8.276 4.562,0 8.276,-3.714 8.276,-8.276 0,-4.564 -3.714,-8.276 -8.276,-8.276 z M 45.517,37.24 a 2.07,2.07 0 0 1 -2.069,-2.069 v -4.138 a 2.07,2.07 0 0 1 4.138,0 v 4.138 a 2.07,2.07 0 0 1 -2.069,2.07 z M 28.781,91.22 a 2.07,2.07 0 0 1 0,2.925 l -2.35,2.35 a 2.07,2.07 0 0 1 -2.925,0 2.067,2.067 0 0 1 0,-2.925 l 2.35,-2.35 a 2.067,2.067 0 0 1 2.925,0 z m 0.6,-3.528 2.353,-2.35 a 2.067,2.067 0 0 1 2.925,0 2.07,2.07 0 0 1 0,2.925 l -2.35,2.35 a 2.063,2.063 0 0 1 -1.465,0.607 2.07,2.07 0 0 1 -1.463,-3.532 z m 5.878,-5.876 0.162,-0.161 c -1.447,-2.03 -2.318,-4.494 -2.318,-7.171 0,-6.137 4.486,-11.212 10.345,-12.205 V 62.07 a 2.07,2.07 0 0 1 4.138,0 v 0.188 c 5.179,0.877 9.257,4.972 10.136,10.157 h 0.209 a 2.07,2.07 0 0 1 0,4.138 h -0.209 c -0.993,5.859 -6.068,10.345 -12.205,10.345 -2.677,0 -5.141,-0.871 -7.17,-2.318 l -0.162,0.162 a 2.067,2.067 0 0 1 -2.926,0 2.067,2.067 0 0 1 0,-2.926 z m 10.258,0.944 c 4.562,0 8.276,-3.712 8.276,-8.276 0,-4.564 -3.714,-8.276 -8.276,-8.276 -4.564,0 -8.276,3.712 -8.276,8.276 0,4.564 3.712,8.276 8.276,8.276 z m 18.62,-10.345 h 4.139 a 2.07,2.07 0 0 1 0,4.138 h -4.138 a 2.07,2.07 0 0 1 0,-4.138 z M 45.518,57.93 a 2.07,2.07 0 0 1 -2.069,-2.069 v -4.138 a 2.07,2.07 0 0 1 4.138,0 v 4.138 a 2.07,2.07 0 0 1 -2.069,2.069 z m 45.517,16.552 a 2.07,2.07 0 0 1 -2.068,2.069 h -4.138 a 2.07,2.07 0 0 1 0,-4.138 h 4.138 a 2.07,2.07 0 0 1 2.068,2.069 z"
     id="path9"
     inkscape:connector-curvature="0"
     style="fill:url(#a);fill-rule:nonzero" />
</svg>
