<?xml version="1.0" encoding="UTF-8" standalone="no"?>
<svg
   xmlns:dc="http://purl.org/dc/elements/1.1/"
   xmlns:cc="http://creativecommons.org/ns#"
   xmlns:rdf="http://www.w3.org/1999/02/22-rdf-syntax-ns#"
   xmlns:svg="http://www.w3.org/2000/svg"
   xmlns="http://www.w3.org/2000/svg"
   xmlns:sodipodi="http://sodipodi.sourceforge.net/DTD/sodipodi-0.dtd"
   xmlns:inkscape="http://www.inkscape.org/namespaces/inkscape"
   width="140.0004"
   height="119.99718"
   viewBox="0 0 140.0004 119.99718"
   version="1.1"
   id="svg11"
   sodipodi:docname="security.svg"
   inkscape:version="0.92.2 (5c3e80d, 2017-08-06)">
  <metadata
     id="metadata15">
    <rdf:RDF>
      <cc:Work
         rdf:about="">
        <dc:format>image/svg+xml</dc:format>
        <dc:type
           rdf:resource="http://purl.org/dc/dcmitype/StillImage" />
        <dc:title></dc:title>
      </cc:Work>
    </rdf:RDF>
  </metadata>
  <sodipodi:namedview
     pagecolor="#ffffff"
     bordercolor="#666666"
     borderopacity="1"
     objecttolerance="10"
     gridtolerance="10"
     guidetolerance="10"
     inkscape:pageopacity="0"
     inkscape:pageshadow="2"
     inkscape:window-width="640"
     inkscape:window-height="480"
     id="namedview13"
     showgrid="false"
     fit-margin-top="0"
     fit-margin-left="0"
     fit-margin-right="0"
     fit-margin-bottom="0"
     inkscape:zoom="1.0473684"
     inkscape:cx="190.00039"
     inkscape:cy="60"
     inkscape:window-x="0"
     inkscape:window-y="0"
     inkscape:window-maximized="0"
     inkscape:current-layer="svg11" />
  <defs
     id="defs7">
    <linearGradient
       id="a"
       x1="122.51843"
       x2="6.9537626"
       y1="86.412539"
       y2="86.412539"
       gradientTransform="matrix(-1.0801377,0,0,0.92580791,140.00039,-20.002824)"
       gradientUnits="userSpaceOnUse">
      <stop
         offset="0%"
         stop-color="#4FF3FE"
         id="stop2" />
      <stop
         offset="100%"
         stop-color="#F436FF"
         id="stop4" />
    </linearGradient>
  </defs>
  <path
     d="m 0.08339332,45.017176 7.50699998,27.979 a 2.417,2.417 0 0 0 2.9599997,1.707 l 9.336,-2.499 a 2.427,2.427 0 0 0 1.47,-1.125 2.427,2.427 0 0 0 0.241,-1.832 l -0.626,-2.332 10.402,-2.785 5.122,8.282 a 7.301,7.301 0 0 0 6.17,3.437 7.234,7.234 0 0 0 1.875,-0.246 l 38.873,-10.404 a 12.292,12.292 0 0 0 3.429,4.038 c 0,0.025 -0.015,0.044 -0.015,0.066 v 28.969 c 0,6.653004 5.424,12.070004 12.087,12.070004 h 21.750997 v 2.413 c 0,3.993 3.253,7.242 7.25,7.242 h 9.669 a 2.416,2.416 0 0 0 2.416,-2.414 V 83.787176 a 2.416,2.416 0 0 0 -2.417,-2.414 h -9.667 c -3.998,0 -7.25,3.25 -7.25,7.242 v 7.242 h -19.336 v -26.554 c 0,-0.017 -0.012,-0.034 -0.012,-0.051 2.924,-2.206 4.845,-5.673 4.845,-9.605 0,-0.179 -0.045,-0.345 -0.053,-0.524 l 28.336,-7.582 a 7.203,7.203 0 0 0 4.404,-3.374 7.184,7.184 0 0 0 0.722,-5.494 l -10.008,-37.3059996 a 7.252,7.252 0 0 0 -8.88,-5.11999998 L 19.572393,27.307176 a 7.178,7.178 0 0 0 -4.86,4.32 7.171,7.171 0 0 0 0.568,6.48 l 2.835,4.583 -3.4,0.91 -0.627,-2.331 a 2.405,2.405 0 0 0 -2.958,-1.707 l -9.3379997,2.498 a 2.413,2.413 0 0 0 -1.70999998,2.957 z M 125.49939,107.92718 V 88.614176 a 2.416,2.416 0 0 1 2.417,-2.412 h 7.25 v 28.967004 h -7.25 a 2.418,2.418 0 0 1 -2.417,-2.414 z m -24.168,-7.241 h 19.334 v 4.828 H 98.914393 c -4,0 -7.25,-3.25 -7.25,-7.242004 v -26.553 h 4.833 v 24.137 a 4.838,4.838 0 0 0 4.833997,4.830004 z M 94.081393,66.889176 c -3.283,0 -6.03,-2.202 -6.922,-5.195 -0.003,-0.015 0.002,-0.029 -0.003,-0.046 -0.099,-0.343 -0.169,-0.654 -0.222,-0.953 -0.05,-0.346 -0.107,-0.688 -0.107,-1.048 0,-3.993 3.254,-7.242 7.253,-7.242 0.462,0 0.912,0.053 1.349,0.138 0.152,0.029 0.295,0.077 0.442,0.113 a 7.21,7.21 0 0 1 0.822,0.256 c 0.17,0.065 0.331,0.143 0.493,0.22 a 7.22,7.22 0 0 1 0.66,0.357 8.28,8.28 0 0 1 0.493,0.326 c 0.174,0.13 0.338,0.273 0.503,0.415 0.169,0.15 0.34,0.295 0.495,0.459 0.099,0.106 0.184,0.224 0.275,0.335 a 7.247,7.247 0 0 1 1.479997,2.895 c 0.002,0.012 0.012,0.021 0.016,0.033 a 7.125,7.125 0 0 1 0.223,1.695 c 0,3.995 -3.252997,7.242 -7.249997,7.242 z m -74.879,-33.481 a 2.39,2.39 0 0 1 1.622,-1.439 L 121.93439,4.9071764 c 1.281,-0.333 2.625,0.451 2.96,1.707 l 10.01,37.3089996 a 2.386,2.386 0 0 1 -0.24,1.83 2.4,2.4 0 0 1 -1.469,1.124 l -28.24,7.558 c -0.172,-0.357 -0.38,-0.69 -0.583,-1.026 -0.186,-0.306 -0.38,-0.6 -0.592,-0.888 -0.297,-0.408 -0.614,-0.796 -0.957,-1.159 -0.162,-0.17 -0.331,-0.33 -0.503,-0.492 -0.38,-0.357 -0.78,-0.688 -1.203,-0.992 -0.138,-0.1 -0.269,-0.21 -0.411,-0.304 a 12.232,12.232 0 0 0 -1.809997,-0.983 c -0.143,-0.06 -0.29,-0.106 -0.435,-0.161 a 11.875,11.875 0 0 0 -1.62,-0.503 c -0.195,-0.045 -0.389,-0.094 -0.587,-0.13 -0.71,-0.128 -1.43,-0.22 -2.173,-0.22 -6.663,0 -12.084,5.417 -12.084,12.07 0,0.307 0.012,0.61 0.041,0.92 l -38.749,10.372 a 2.464,2.464 0 0 1 -2.68,-1.064 l -21.215,-34.307 a 2.397,2.397 0 0 1 -0.19,-2.16 z m 1.564,13.568 5.958,9.634 1.998,3.23 -9.002,2.412 -3.754,-13.989 z m -10.719,-2.129 6.255,23.319 -4.67,1.248 -6.2539997,-23.316 4.6699997,-1.25 z m 108.202997,-28.65 a 2.543,2.543 0 0 0 1.716,-0.7 2.537,2.537 0 0 0 0.7,-1.714 c 0,-0.628 -0.265,-1.255 -0.7,-1.714 -0.919,-0.893 -2.514,-0.893 -3.432,0 -0.435,0.459 -0.701,1.086 -0.701,1.714 0,0.627 0.266,1.255 0.7,1.714 0.46,0.434 1.088,0.7 1.717,0.7 z"
     id="path9"
     inkscape:connector-curvature="0"
     style="fill:url(#a);fill-rule:nonzero" />
</svg>
