<svg xmlns="http://www.w3.org/2000/svg" width="24" height="24" style="background:#9b9b9b" viewBox="0 0 24 24">
    <path fill="#ADD9F0" fill-rule="evenodd" d="M15.96 19.501h-8a3.5 3.5 0 0 1-3.5-3.5c0-5.907 4.125-3.531 7.5-3.531 3.374 0 7.5-2.438 7.5 3.531 0 1.934-1.566 3.5-3.5 3.5m5.529-10.286l.032.022S24.167 4.666 20.917 2c-2 0-5.06 3.304-5.06 3.304l.023.015a14.162 14.162 0 0 0-7.781-.016c-.015-.017-3.061-3.302-5.056-3.302-3.174 2.603-.73 7.012-.614 7.217-1.018 1.526-1.573 3.433-1.396 5.743.24 3.126 2.848 6.54 5.982 6.54h9.888c3.136 0 5.743-3.414 5.982-6.54.179-2.312-.376-4.22-1.396-5.746m-6.01 5.286c.553 0 1 .672 1 1.5s-.447 1.5-1 1.5c-.552 0-1-.672-1-1.5s.448-1.5 1-1.5m-7 0c.553 0 1 .672 1 1.5s-.447 1.5-1 1.5c-.551 0-1-.672-1-1.5s.449-1.5 1-1.5"/>
</svg>
