<svg xmlns="http://www.w3.org/2000/svg" width="24" height="24" style="background:#9b9b9b" viewBox="0 0 24 24">
    <path fill="#ADD9F0" fill-rule="evenodd" d="M2.082 21.23h4.362V8.775H2.082V21.23zm2.21-18.46c-1.493 0-2.47.929-2.47 2.15 0 1.197.949 2.155 2.412 2.155h.03c1.522 0 2.468-.958 2.468-2.154-.03-1.222-.946-2.151-2.44-2.151zm17.885 11.318v7.143h-4.362v-6.665c0-1.673-.631-2.816-2.21-2.816-1.206 0-1.923.77-2.24 1.515-.114.266-.144.637-.144 1.009v6.957H8.857s.059-11.287 0-12.457h4.364v1.766l-.03.04h.03v-.04c.58-.848 1.615-2.058 3.933-2.058 2.87 0 5.023 1.78 5.023 5.606z"/>
</svg>
