<svg xmlns="http://www.w3.org/2000/svg" width="24" height="24" style="background:#9b9b9b" viewBox="0 0 24 24">
    <path fill="#ADD9F0" fill-rule="evenodd" d="M23.443 6.334c-.813.363-1.5.375-2.228.016.939-.562.982-.957 1.321-2.019-.878.521-1.851.9-2.886 1.104a4.545 4.545 0 0 0-7.742 4.145 12.895 12.895 0 0 1-9.366-4.748 4.545 4.545 0 0 0 1.406 6.067 4.527 4.527 0 0 1-2.057-.568l-.001.057a4.547 4.547 0 0 0 3.646 4.456 4.575 4.575 0 0 1-2.053.079 4.551 4.551 0 0 0 4.245 3.155A9.142 9.142 0 0 1 1 19.959 12.865 12.865 0 0 0 7.965 22c8.359 0 12.929-6.924 12.929-12.929 0-.198-.004-.393-.013-.588.888-.64 1.954-1.237 2.562-2.149"/>
</svg>
