<svg xmlns="http://www.w3.org/2000/svg" width="24" height="24" style="background:#9b9b9b" viewBox="0 0 24 24">
    <path fill="#ADD9F0" fill-rule="evenodd" d="M2 12.01c0-3.748 2.008-6.918 4.98-8.647C13.603-.49 22 4.28 22 12.01c0 3.748-2.008 6.917-4.98 8.648a10.06 10.06 0 0 1-10.04 0C4.005 18.928 2 15.755 2 12.01m3.76 5.492c1.252-2.449 4.365-5.105 7.1-5.712-.2-.466-.393-.885-.58-1.258-2.772.886-5.932 1.218-8.6 1.08 0 2.13.349 3.931 2.08 5.89M3.92 9.953c1.17.106 4.368.121 7.64-.859C10.547 7.297 9.433 5.8 8.22 4.601c-2.147 1.085-3.696 3.097-4.3 5.352M6.9 18.58c2.4 1.867 5.376 2.22 8.04 1.2a29.337 29.337 0 0 0-1.56-6.612c-2.6.564-5.345 3.172-6.48 5.412M9.96 3.962c1.173 1.211 2.26 2.723 3.26 4.533 1.813-.759 3.18-1.725 4.1-2.896-2.231-1.843-4.98-2.29-7.36-1.637m3.98 5.951c.2.426.427.966.68 1.618 1.821-.172 3.853-.17 5.68-.08-.107-1.81-.76-3.422-1.96-4.833-.867 1.291-2.333 2.39-4.4 3.295m1.18 3.015A28.63 28.63 0 0 1 16.5 19c2.091-1.348 3.51-3.565 3.78-6.072-2.027-.138-3.388-.126-5.16 0"/>
</svg>
