<svg xmlns="http://www.w3.org/2000/svg" width="80" height="64" viewBox="0 0 80 64">
    <defs>
        <linearGradient id="a" x1="94.281%" x2="5.33%" y1="50.151%" y2="50.151%">
            <stop offset="0%" stop-color="#4FF3FE"/>
            <stop offset="100%" stop-color="#F238FF"/>
        </linearGradient>
    </defs>
    <path fill="url(#a)" fill-rule="evenodd" d="M186.17 535a3.93 3.93 0 0 1-.767-.342 4.01 4.01 0 0 1-1.98-3.468v-25.9l-21.453-12.438a4.007 4.007 0 0 1-1.97-3.088V489a4.003 4.003 0 0 1 1.961-3.084l24.665-14.382a3.915 3.915 0 0 1 3.946-.001l47.445 27.618a4.01 4.01 0 0 1 1.983 3.46 4.008 4.008 0 0 1-1.969 3.467l-24.219 14.217a3.655 3.655 0 0 1-.519.305l-23.932 14.05c-.25.147-.51.263-.778.35h-2.413zm29.637-25.124l12.337-7.242-12.337-7.182v14.424zm-24.477 14.369l12.315-7.23-12.315-7.14v14.37zm-19.46-34.873l15.145 8.78 16.746-9.712-15.159-8.825-16.731 9.757zm36.03 20.889v-15l-12.934 7.5 12.933 7.5z" transform="translate(-160 -471)"/>
</svg>
