<?xml version="1.0" encoding="UTF-8" standalone="no"?>
<svg
   xmlns:dc="http://purl.org/dc/elements/1.1/"
   xmlns:cc="http://creativecommons.org/ns#"
   xmlns:rdf="http://www.w3.org/1999/02/22-rdf-syntax-ns#"
   xmlns:svg="http://www.w3.org/2000/svg"
   xmlns="http://www.w3.org/2000/svg"
   xmlns:sodipodi="http://sodipodi.sourceforge.net/DTD/sodipodi-0.dtd"
   xmlns:inkscape="http://www.inkscape.org/namespaces/inkscape"
   width="120"
   height="120"
   viewBox="0 0 120 120"
   version="1.1"
   id="svg11"
   sodipodi:docname="update.svg"
   inkscape:version="0.92.2 (5c3e80d, 2017-08-06)">
  <metadata
     id="metadata15">
    <rdf:RDF>
      <cc:Work
         rdf:about="">
        <dc:format>image/svg+xml</dc:format>
        <dc:type
           rdf:resource="http://purl.org/dc/dcmitype/StillImage" />
        <dc:title></dc:title>
      </cc:Work>
    </rdf:RDF>
  </metadata>
  <sodipodi:namedview
     pagecolor="#ffffff"
     bordercolor="#666666"
     borderopacity="1"
     objecttolerance="10"
     gridtolerance="10"
     guidetolerance="10"
     inkscape:pageopacity="0"
     inkscape:pageshadow="2"
     inkscape:window-width="640"
     inkscape:window-height="480"
     id="namedview13"
     showgrid="false"
     fit-margin-top="0"
     fit-margin-left="0"
     fit-margin-right="0"
     fit-margin-bottom="0"
     inkscape:zoom="1.0473684"
     inkscape:cx="190"
     inkscape:cy="60"
     inkscape:window-x="0"
     inkscape:window-y="0"
     inkscape:window-maximized="0"
     inkscape:current-layer="svg11" />
  <defs
     id="defs7">
    <linearGradient
       id="a"
       x1="113.4312"
       x2="6.4379999"
       y1="80"
       y2="80"
       gradientUnits="userSpaceOnUse"
       gradientTransform="translate(0,-20)">
      <stop
         offset="0%"
         stop-color="#4FF3FE"
         id="stop2" />
      <stop
         offset="100%"
         stop-color="#F436FF"
         id="stop4" />
    </linearGradient>
  </defs>
  <path
     d="M 96.429,47.143 C 83.431,47.143 72.856,36.568 72.856,23.571 72.856,10.575 83.43,0 96.429,0 109.425,0 120,10.575 120,23.571 120,36.568 109.425,47.143 96.429,47.143 Z m 0,-42.857 c -10.635,0 -19.285,8.653 -19.285,19.285 0,10.633 8.65,19.286 19.285,19.286 10.633,0 19.285,-8.653 19.285,-19.286 0,-10.632 -8.652,-19.285 -19.285,-19.285 z M 62.144,25.714 H 10.716 a 6.437,6.437 0 0 0 -6.43,6.429 v 77.143 a 6.437,6.437 0 0 0 6.43,6.428 h 77.142 a 6.436,6.436 0 0 0 6.428,-6.428 V 57.857 a 2.143,2.143 0 1 1 4.286,0 v 51.429 C 98.572,115.194 93.765,120 87.858,120 H 10.716 C 4.808,120 0,115.194 0,109.286 V 32.143 C 0,26.235 4.808,21.429 10.716,21.429 h 51.428 a 2.144,2.144 0 0 1 0,4.285 z"
     id="path9"
     inkscape:connector-curvature="0"
     style="fill:url(#a);fill-rule:nonzero" />
</svg>
