<svg xmlns="http://www.w3.org/2000/svg" width="60" height="60" viewBox="0 0 60 60">
    <defs>
        <linearGradient id="a" x1="94.526%" x2="5.365%" y1="50%" y2="50%">
            <stop offset="0%" stop-color="#4FF3FE"/>
            <stop offset="100%" stop-color="#F436FF"/>
        </linearGradient>
    </defs>
    <path fill="url(#a)" fill-rule="nonzero" d="M501.714 1755.43a4.29 4.29 0 0 1-4.286-4.287c0-1.14.455-2.172 1.184-2.94l-5.684-9.094a1.072 1.072 0 0 1 1.818-1.136l5.688 9.101a4.227 4.227 0 0 1 1.28-.216 4.29 4.29 0 0 1 4.286 4.285 4.292 4.292 0 0 1-4.286 4.286zm0-6.43c-.415 0-.798.124-1.126.327l-.005.007c-.009.004-.017.005-.025.01a2.139 2.139 0 0 0 1.156 3.942 2.145 2.145 0 0 0 2.143-2.143 2.145 2.145 0 0 0-2.143-2.142zm0-25.715c-.493 0-.959-.1-1.4-.254l-16.846 25.27a4.248 4.248 0 0 1 1.103 2.842 4.29 4.29 0 0 1-4.286 4.286 4.29 4.29 0 0 1-4.285-4.286c0-.422.08-.82.194-1.206l-14.335-8.6a4.27 4.27 0 0 1-3.002 1.235c-.641 0-1.244-.151-1.79-.405l-6.781 8.286v9.261h54.643a1.072 1.072 0 0 1 0 2.143h-3.215v1.072a1.072 1.072 0 0 1-2.143 0v-1.072h-4.286v1.072a1.072 1.072 0 0 1-2.143 0v-1.072h-4.285v1.072a1.072 1.072 0 0 1-2.143 0v-1.072h-4.285v1.072a1.072 1.072 0 0 1-2.144 0v-1.072H476v1.072a1.072 1.072 0 0 1-2.143 0v-1.072h-4.286v1.072a1.072 1.072 0 0 1-2.143 0v-1.072h-4.286v1.072a1.071 1.071 0 1 1-2.143 0v-1.072h-4.285v1.072a1.071 1.071 0 1 1-2.143 0v-1.072h-4.285v1.072a1.072 1.072 0 0 1-2.143 0v-1.072h-1.072a1.071 1.071 0 1 1 0-2.143h1.072v-4.285h-1.072a1.072 1.072 0 0 1 0-2.143h1.072v-4.285h-1.072a1.072 1.072 0 0 1 0-2.143h1.072v-4.286h-1.072a1.072 1.072 0 0 1 0-2.143h1.072v-4.286h-1.072a1.072 1.072 0 0 1 0-2.143h1.072v-4.286h-1.072a1.072 1.072 0 0 1 0-2.143h1.072v-4.286h-1.072a1.071 1.071 0 1 1 0-2.143h1.072v-4.284h-1.072a1.072 1.072 0 0 1 0-2.143h1.072v-6.43h-1.072a1.072 1.072 0 0 1 0-2.142h1.072v-1.072a1.071 1.071 0 1 1 2.143 0v20.57l5.124-6.262a4.245 4.245 0 0 1-.84-2.521 4.29 4.29 0 0 1 4.287-4.286c1.991 0 3.654 1.37 4.133 3.214h13.162c.48-1.844 2.142-3.214 4.133-3.214a4.29 4.29 0 0 1 4.286 4.286 4.26 4.26 0 0 1-1.183 2.94l6.374 10.2a1.072 1.072 0 0 1-1.817 1.135l-6.38-10.207a4.227 4.227 0 0 1-1.28.216c-1.991 0-3.654-1.37-4.133-3.213H462.99c-.479 1.843-2.142 3.213-4.133 3.213-.641 0-1.244-.15-1.79-.404l-6.781 8.287v18.045l5.124-6.262a4.25 4.25 0 0 1-.84-2.522 4.29 4.29 0 0 1 4.287-4.286 4.29 4.29 0 0 1 4.285 4.286c0 .42-.08.82-.194 1.205l14.335 8.6a4.27 4.27 0 0 1 3.002-1.233c.493 0 .959.1 1.4.254l16.846-25.27a4.248 4.248 0 0 1-1.103-2.843 4.29 4.29 0 0 1 4.286-4.284 4.29 4.29 0 0 1 4.286 4.284 4.29 4.29 0 0 1-4.286 4.286zm-21.43-4.286c.415 0 .799-.123 1.127-.326l.006-.007c.005-.002.01-.002.015-.005.597-.38.997-1.045.997-1.803a2.146 2.146 0 0 0-2.144-2.143 2.143 2.143 0 0 0 0 4.285zm-22.791-.503c.005.004.011.004.017.008.005.005.007.011.013.017.366.294.827.478 1.334.478 1.181 0 2.142-.96 2.142-2.141a2.145 2.145 0 0 0-2.142-2.143 2.145 2.145 0 0 0-2.143 2.143c0 .66.307 1.245.779 1.638zm1.364 17.647a2.145 2.145 0 0 0-2.143 2.143c0 .661.307 1.245.779 1.638.005.004.011.005.017.01.005.004.007.01.011.015.368.296.829.48 1.336.48.772 0 1.444-.415 1.821-1.029.003-.005.003-.012.006-.018.003-.003.007-.005.009-.009.19-.32.306-.689.306-1.087a2.145 2.145 0 0 0-2.142-2.143zM480.285 1749c-.772 0-1.443.413-1.82 1.027-.004.006-.004.013-.007.018-.002.004-.005.005-.008.008-.19.32-.307.69-.307 1.09 0 1.181.96 2.142 2.142 2.142a2.146 2.146 0 0 0 2.144-2.143 2.146 2.146 0 0 0-2.144-2.142zm21.43-32.143a2.145 2.145 0 0 0-2.144 2.141c0 1.183.961 2.143 2.143 2.143s2.143-.96 2.143-2.143c0-1.18-.961-2.141-2.143-2.141z" transform="translate(-446 -1704)"/>
</svg>
