<?xml version="1.0" encoding="UTF-8" standalone="no"?>
<svg
   xmlns:dc="http://purl.org/dc/elements/1.1/"
   xmlns:cc="http://creativecommons.org/ns#"
   xmlns:rdf="http://www.w3.org/1999/02/22-rdf-syntax-ns#"
   xmlns:svg="http://www.w3.org/2000/svg"
   xmlns="http://www.w3.org/2000/svg"
   xmlns:sodipodi="http://sodipodi.sourceforge.net/DTD/sodipodi-0.dtd"
   xmlns:inkscape="http://www.inkscape.org/namespaces/inkscape"
   width="160"
   height="120"
   viewBox="0 0 160 120"
   version="1.1"
   id="svg11"
   sodipodi:docname="website.svg"
   inkscape:version="0.92.2 (5c3e80d, 2017-08-06)">
  <metadata
     id="metadata15">
    <rdf:RDF>
      <cc:Work
         rdf:about="">
        <dc:format>image/svg+xml</dc:format>
        <dc:type
           rdf:resource="http://purl.org/dc/dcmitype/StillImage" />
        <dc:title></dc:title>
      </cc:Work>
    </rdf:RDF>
  </metadata>
  <sodipodi:namedview
     pagecolor="#ffffff"
     bordercolor="#666666"
     borderopacity="1"
     objecttolerance="10"
     gridtolerance="10"
     guidetolerance="10"
     inkscape:pageopacity="0"
     inkscape:pageshadow="2"
     inkscape:window-width="640"
     inkscape:window-height="480"
     id="namedview13"
     showgrid="false"
     fit-margin-top="0"
     fit-margin-left="0"
     fit-margin-right="0"
     fit-margin-bottom="0"
     inkscape:zoom="1.0473684"
     inkscape:cx="190"
     inkscape:cy="60"
     inkscape:window-x="2328"
     inkscape:window-y="105"
     inkscape:window-maximized="0"
     inkscape:current-layer="svg11" />
  <defs
     id="defs7">
    <linearGradient
       id="a"
       x1="130.97907"
       x2="7.433962"
       y1="92.376043"
       y2="92.376043"
       gradientTransform="matrix(1.1547005,0,0,0.8660254,0,-20)"
       gradientUnits="userSpaceOnUse">
      <stop
         offset="0%"
         stop-color="#4FF3FE"
         id="stop2" />
      <stop
         offset="100%"
         stop-color="#F436FF"
         id="stop4" />
    </linearGradient>
  </defs>
  <path
     d="m 109.187,87.203 h 45.595 V 30.589 h -45.595 z m 0,5.217 v 1.808 c 0,3.42 2.807,6.225 6.228,6.225 h 33.14 c 3.419,0 6.227,-2.807 6.227,-6.225 V 92.42 Z M 109.2,25.371 h 45.569 c -0.209,-3.233 -2.93,-5.825 -6.215,-5.825 h -33.14 c -3.285,0 -6.005,2.591 -6.214,5.825 z M 5.218,20.87 H 96.56 a 2.609,2.609 0 1 1 0,5.217 H 5.22 v 86.087 a 2.625,2.625 0 0 0 2.61,2.609 h 104.39 c 1.43,0 2.61,-1.18 2.61,-2.61 a 2.609,2.609 0 0 1 5.218,0 c 0,4.311 -3.517,7.827 -7.828,7.827 H 7.829 C 3.517,120 0,116.484 0,112.174 V 7.826 C 0,3.516 3.517,0 7.829,0 H 112.22 c 4.311,0 7.828,3.516 7.828,7.826 a 2.609,2.609 0 0 1 -5.218,0 2.625,2.625 0 0 0 -2.61,-2.609 H 7.829 c -1.43,0 -2.61,1.18 -2.61,2.61 V 20.87 Z m 7.83,-11.74 a 3.914,3.914 0 1 1 0,7.828 3.914,3.914 0 0 1 0,-7.828 z m 10.44,0 a 3.914,3.914 0 1 1 0,7.828 3.914,3.914 0 0 1 0,-7.828 z m 10.439,0 a 3.914,3.914 0 1 1 0,7.828 3.914,3.914 0 0 1 0,-7.828 z m 37.842,38.088 a 14.302,14.302 0 0 1 14.353,14.347 c 0,4.766 -1.414,9.462 -4.009,14.044 -2.148,3.793 -5.047,7.41 -8.51,10.833 a 73.825,73.825 0 0 1 -8.37,7.092 c -1,0.73 -1.93,1.37 -2.769,1.92 -0.511,0.335 -0.885,0.569 -1.097,0.696 a 2.61,2.61 0 0 1 -2.806,-0.077 43.01,43.01 0 0 1 -1.08,-0.766 82.314,82.314 0 0 1 -2.749,-2.094 88.2,88.2 0 0 1 -8.321,-7.491 C 42.968,82.185 40.086,78.552 37.949,74.86 35.349,70.372 33.927,65.925 33.927,61.565 A 14.302,14.302 0 0 1 48.281,47.218 c 4.871,0 9.153,2.388 11.744,6.065 a 14.306,14.306 0 0 1 11.744,-6.065 z m -9.612,42.101 a 68.668,68.668 0 0 0 7.777,-6.587 c 6.893,-6.813 10.97,-14.013 10.97,-21.167 0,-5.08 -4.051,-9.13 -9.135,-9.13 a 9.084,9.084 0 0 0 -9.135,9.13 2.609,2.609 0 0 1 -5.218,0 c 0,-3.092 0.963,-5.947 2.609,-8.282 a 14.319,14.319 0 0 1 2.609,8.282 2.609,2.609 0 0 1 -5.218,0 c 0,-5.08 -4.052,-9.13 -9.135,-9.13 a 9.084,9.084 0 0 0 -9.135,9.13 c 0,6.347 4.095,13.42 11.004,20.518 a 83.051,83.051 0 0 0 7.827,7.044 c 0.758,0.602 1.47,1.147 2.126,1.632 a 64.622,64.622 0 0 0 2.054,-1.44 z m 86.397,16.35 h -33.14 c -6.302,0 -11.445,-5.14 -11.445,-11.44 V 25.77 c 0,-6.3 5.144,-11.442 11.446,-11.442 h 33.14 c 6.3,0 11.445,5.143 11.445,11.442 v 68.457 c 0,6.3 -5.145,11.442 -11.446,11.442 z"
     id="path9"
     inkscape:connector-curvature="0"
     style="fill:url(#a);fill-rule:nonzero" />
</svg>
